<?xml version="1.0" encoding="UTF-8" standalone="no"?>
<!-- Created with Inkscape (http://www.inkscape.org/) -->

<svg
   version="1.1"
   id="svg2"
   width="161.70715"
   height="171.17424"
   viewBox="0 0 161.70715 171.17424"
   xml:space="preserve"
   xmlns="http://www.w3.org/2000/svg"
   xmlns:svg="http://www.w3.org/2000/svg"><defs
     id="defs6"><clipPath
       clipPathUnits="userSpaceOnUse"
       id="clipPath1492"><path
         d="M 0,0 H 595.276 V 841.89 H 0 Z"
         id="path1490" /></clipPath><clipPath
       clipPathUnits="userSpaceOnUse"
       id="clipPath1546"><path
         d="M 0,0 H 595.276 V 841.89 H 0 Z"
         id="path1544" /></clipPath><clipPath
       clipPathUnits="userSpaceOnUse"
       id="clipPath1584"><path
         d="M 0,0 H 595.276 V 841.89 H 0 Z"
         id="path1582" /></clipPath><clipPath
       clipPathUnits="userSpaceOnUse"
       id="clipPath1606"><path
         d="M 0,0 H 595.276 V 841.89 H 0 Z"
         id="path1604" /></clipPath><clipPath
       clipPathUnits="userSpaceOnUse"
       id="clipPath1632"><path
         d="M 0,0 H 595.276 V 841.89 H 0 Z"
         id="path1630" /></clipPath><clipPath
       clipPathUnits="userSpaceOnUse"
       id="clipPath1646"><path
         d="M 0,0 H 595.276 V 841.89 H 0 Z"
         id="path1644" /></clipPath><clipPath
       clipPathUnits="userSpaceOnUse"
       id="clipPath1676"><path
         d="M 0,0 H 595.276 V 841.89 H 0 Z"
         id="path1674" /></clipPath></defs><g
     id="g1308"
     transform="matrix(1.3333333,0,0,-1.3333333,-304.68777,1400.576)"><g
       id="g4381"
       transform="translate(208.96923,901.71402)"><path
         d="m 0,0 h -0.375 v 0.374 m 0,157.567 v 0.374 H 0 m 160.623,0 h 0.375 v -0.374 m 0,-157.567 V 0 h -0.375"
         style="fill:none;stroke:#231f20;stroke-width:0.25;stroke-linecap:butt;stroke-linejoin:miter;stroke-miterlimit:10;stroke-dasharray:none;stroke-opacity:1"
         id="path4379" /></g><path
       d="m 228.76603,949.39612 h 5.946 v 90.19498 h -5.946 z"
       style="fill:#3b55ae;fill-opacity:1;fill-rule:nonzero;stroke:none"
       id="path4383" /><g
       id="g4431"
       transform="translate(-8.3569673,438.01612)"><g
         id="g4429"
         clip-path="url(#clipPath1492)"><g
           id="g4387"
           transform="translate(309.1464,534.3619)"><path
             d="m 0,0 v -5.249 h 13.579 c -0.63,-3.661 -2.362,-6.698 -5.154,-9.035 -2.945,-2.464 -6.605,-3.713 -10.878,-3.713 -3.533,0 -6.826,0.839 -9.788,2.494 -2.957,1.653 -5.306,3.955 -6.98,6.842 -1.675,2.886 -2.524,5.973 -2.524,9.176 0,3.123 0.82,6.13 2.437,8.938 1.617,2.806 3.93,5.063 6.877,6.705 2.953,1.646 6.105,2.48 9.366,2.48 2.62,0 5.354,-0.615 8.126,-1.828 2.776,-1.216 5.366,-3.026 7.699,-5.382 l 0.337,-0.34 4.038,3.926 -0.374,0.364 c -3.08,3 -6.287,5.211 -9.532,6.573 -3.248,1.364 -6.761,2.056 -10.44,2.056 -4.548,0 -8.686,-1.042 -12.298,-3.098 -3.615,-2.058 -6.501,-4.952 -8.575,-8.601 -2.074,-3.649 -3.126,-7.647 -3.126,-11.883 0,-5.698 1.833,-10.786 5.449,-15.125 4.698,-5.632 11.154,-8.487 19.191,-8.487 6.63,0 12.005,2.066 15.976,6.142 3.97,4.073 6.003,9.639 6.042,16.54 L 19.451,0 Z"
             style="fill:#9fc91f;fill-opacity:1;fill-rule:nonzero;stroke:none"
             id="path4385" /></g><g
           id="g4391"
           transform="translate(284.6685,580.5734)"><path
             d="m 0,0 c -12.883,0 -23.365,-10.481 -23.365,-23.365 0,-0.496 0.021,-0.987 0.052,-1.476 v -44.352 h 6.02 l -0.132,30.285 c 4.282,-4.795 10.506,-7.821 17.425,-7.821 12.883,0 23.365,10.481 23.365,23.364 C 23.365,-10.481 12.883,0 0,0 m 0,-41.481 c -9.989,0 -18.116,8.127 -18.116,18.116 0,9.99 8.127,18.116 18.116,18.116 9.989,0 18.116,-8.126 18.116,-18.116 0,-9.989 -8.127,-18.116 -18.116,-18.116"
             style="fill:#4d97d8;fill-opacity:1;fill-rule:nonzero;stroke:none"
             id="path4389" /></g><g
           id="g4395"
           transform="translate(272.4663,601.5248)"><path
             d="m 0,0 c -13.031,0 -23.632,-10.601 -23.632,-23.632 0,-0.502 0.021,-0.998 0.052,-1.492 l -0.003,-65.021 h 6.089 l -0.139,50.801 c 4.331,-4.856 10.63,-7.921 17.633,-7.921 13.031,0 23.632,10.602 23.632,23.633 C 23.632,-10.601 13.031,0 0,0 m 0,-41.956 c -10.104,0 -18.324,8.22 -18.324,18.324 0,10.103 8.22,18.323 18.324,18.323 10.104,0 18.323,-8.22 18.323,-18.323 0,-10.104 -8.219,-18.324 -18.323,-18.324"
             style="fill:#c3116d;fill-opacity:1;fill-rule:nonzero;stroke:none"
             id="path4393" /></g><g
           id="g4399"
           transform="translate(351.8381,577.7045)"><path
             d="m 0,0 c 0,-9.815 -7.957,-17.772 -17.772,-17.772 -9.815,0 -17.772,7.957 -17.772,17.772 0,9.815 7.957,17.772 17.772,17.772 C -7.957,17.772 0,9.815 0,0"
             style="fill:#889cd7;fill-opacity:1;fill-rule:nonzero;stroke:none"
             id="path4397" /></g><g
           id="g4403"
           transform="translate(333.9672,601.6755)"><path
             d="m 0,0 c -13.271,0 -24.029,-10.758 -24.029,-24.029 0,-13.272 10.758,-24.03 24.029,-24.03 13.271,0 24.029,10.758 24.029,24.03 C 24.029,-10.758 13.271,0 0,0 m 0.099,-41.743 c -9.815,0 -17.772,7.957 -17.772,17.772 0,9.815 7.957,17.772 17.772,17.772 9.815,0 17.772,-7.957 17.772,-17.772 0,-9.815 -7.957,-17.772 -17.772,-17.772"
             style="fill:#3b55ae;fill-opacity:1;fill-rule:nonzero;stroke:none"
             id="path4401" /></g><g
           id="g4407"
           transform="translate(337.0669,585.0358)"><path
             d="m 0,0 c -3.175,0 -5.749,-2.574 -5.749,-5.75 0,-3.175 2.574,-5.749 5.749,-5.749 3.175,0 5.75,2.574 5.75,5.749 C 5.75,-2.574 3.175,0 0,0 m 0,-7.513 c -0.974,0 -1.764,0.789 -1.764,1.763 0,0.975 0.79,1.764 1.764,1.764 0.974,0 1.764,-0.789 1.764,-1.764 0,-0.974 -0.79,-1.763 -1.764,-1.763"
             style="fill:#ffffff;fill-opacity:1;fill-rule:nonzero;stroke:none"
             id="path4405" /></g><g
           id="g4411"
           transform="translate(337.2574,581.3705)"><path
             d="m 0,0 c 0,9.028 -7.345,16.373 -16.373,16.373 -0.031,0 -0.062,-0.001 -0.094,-0.002 -0.208,-0.137 -0.414,-0.276 -0.618,-0.419 0.236,0.01 0.474,0.016 0.712,0.016 8.805,0 15.969,-7.163 15.969,-15.968 0,-8.805 -7.164,-15.968 -15.969,-15.968 -3.343,0 -6.45,1.033 -9.018,2.797 0.099,-0.23 0.202,-0.459 0.308,-0.686 2.524,-1.592 5.511,-2.515 8.71,-2.515 C -7.345,-16.372 0,-9.028 0,0"
             style="fill:#ffffff;fill-opacity:1;fill-rule:nonzero;stroke:none"
             id="path4409" /></g><g
           id="g4415"
           transform="translate(338.1443,559.7531)"><path
             d="m 0,0 c -10.202,0 -18.503,8.3 -18.503,18.503 0,9.17 7.462,16.632 16.633,16.632 8.242,0 14.948,-6.706 14.948,-14.949 0,-7.407 -6.026,-13.434 -13.433,-13.434 -6.656,0 -12.07,5.415 -12.07,12.07 0,5.979 4.864,10.843 10.842,10.843 5.37,0 9.739,-4.368 9.739,-9.738 0,-4.822 -3.923,-8.744 -8.745,-8.744 -4.328,0 -7.849,3.521 -7.849,7.849 0,3.885 3.16,7.045 7.044,7.045 3.485,0 6.32,-2.835 6.32,-6.32 0,-3.125 -2.542,-5.668 -5.668,-5.668 -2.801,0 -5.08,2.28 -5.08,5.081 0,2.51 2.042,4.552 4.552,4.552 v 0.404 c -2.733,0 -4.956,-2.223 -4.956,-4.956 0,-3.024 2.46,-5.485 5.484,-5.485 3.348,0 6.072,2.724 6.072,6.072 0,3.707 -3.016,6.724 -6.724,6.724 -4.107,0 -7.448,-3.342 -7.448,-7.449 0,-4.551 3.702,-8.254 8.253,-8.254 5.045,0 9.149,4.104 9.149,9.149 0,5.592 -4.55,10.142 -10.143,10.142 -6.201,0 -11.247,-5.045 -11.247,-11.247 0,-6.878 5.596,-12.474 12.475,-12.474 7.63,0 13.837,6.208 13.837,13.838 0,8.465 -6.887,15.353 -15.352,15.353 -9.394,0 -17.037,-7.643 -17.037,-17.036 0,-10.426 8.482,-18.907 18.907,-18.907 5.605,0 10.875,2.183 14.839,6.146 1.786,1.787 3.21,3.84 4.236,6.069 0.2,0.767 0.363,1.55 0.488,2.345 C 18.571,11.125 16.873,8.348 14.553,6.028 10.666,2.141 5.497,0 0,0"
             style="fill:#ffffff;fill-opacity:1;fill-rule:nonzero;stroke:none"
             id="path4413" /></g><g
           id="g4419"
           transform="translate(322.8881,590.5315)"><path
             d="m 0,0 c -6.824,0 -12.375,-5.552 -12.375,-12.376 0,-6.823 5.551,-12.375 12.375,-12.375 6.824,0 12.375,5.552 12.375,12.375 C 12.375,-5.552 6.824,0 0,0 m 0,-24.347 c -6.601,0 -11.971,5.37 -11.971,11.971 0,6.601 5.37,11.972 11.971,11.972 6.601,0 11.971,-5.371 11.971,-11.972 0,-6.601 -5.37,-11.971 -11.971,-11.971"
             style="fill:#ffffff;fill-opacity:1;fill-rule:nonzero;stroke:none"
             id="path4417" /></g><g
           id="g4423"
           transform="translate(311.0436,583.6874)"><path
             d="m 0,0 c -0.114,0 -0.227,-0.002 -0.341,-0.004 -0.035,-0.135 -0.067,-0.27 -0.1,-0.406 0.147,0.004 0.294,0.006 0.441,0.006 9.511,0 17.249,-7.738 17.249,-17.249 0,-3.973 -1.351,-7.636 -3.617,-10.555 0.129,-0.054 0.258,-0.106 0.388,-0.158 2.277,2.973 3.633,6.687 3.633,10.713 C 17.653,-7.919 9.734,0 0,0"
             style="fill:#ffffff;fill-opacity:1;fill-rule:nonzero;stroke:none"
             id="path4421" /></g><g
           id="g4427"
           transform="translate(325.808,595.2335)"><path
             d="M 0,0 C 0,1.652 -0.411,3.21 -1.136,4.577 -1.261,4.525 -1.385,4.471 -1.508,4.416 -0.804,3.099 -0.404,1.595 -0.404,0 c 0,-5.183 -4.217,-9.4 -9.4,-9.4 -1.525,0 -2.966,0.365 -4.241,1.012 -0.051,-0.125 -0.103,-0.249 -0.153,-0.375 1.322,-0.666 2.815,-1.041 4.394,-1.041 C -4.398,-9.804 0,-5.406 0,0"
             style="fill:#ffffff;fill-opacity:1;fill-rule:nonzero;stroke:none"
             id="path4425" /></g></g></g><path
       d="m 230.02803,935.54212 h -1.062 v 7.98 h 1.062 z"
       style="fill:#3b55ae;fill-opacity:1;fill-rule:nonzero;stroke:none"
       id="path4433" /><g
       id="g4465"
       transform="translate(-8.3569673,438.01612)"><g
         id="g4463"
         clip-path="url(#clipPath1546)"><g
           id="g4437"
           transform="translate(240.911,503.3042)"><path
             d="m 0,0 v -0.916 h 0.022 c 0.395,0.7 1.021,1.05 1.878,1.05 0.38,0 0.697,-0.052 0.95,-0.156 0.253,-0.105 0.458,-0.25 0.615,-0.436 0.156,-0.187 0.266,-0.408 0.329,-0.665 0.064,-0.257 0.095,-0.542 0.095,-0.855 v -3.8 H 2.94 v 3.912 c 0,0.357 -0.105,0.64 -0.313,0.849 -0.209,0.209 -0.496,0.313 -0.861,0.313 -0.291,0 -0.542,-0.045 -0.754,-0.134 C 0.799,-0.927 0.622,-1.054 0.481,-1.218 0.339,-1.382 0.233,-1.574 0.162,-1.794 0.091,-2.014 0.056,-2.254 0.056,-2.515 v -3.263 h -0.95 V 0 Z"
             style="fill:#3b55ae;fill-opacity:1;fill-rule:nonzero;stroke:none"
             id="path4435" /></g><g
           id="g4441"
           transform="translate(248.7014,503.3042)"><path
             d="m 0,0 v -0.838 h -1.151 v -3.588 c 0,-0.111 0.009,-0.201 0.028,-0.268 0.018,-0.067 0.054,-0.119 0.106,-0.156 0.052,-0.038 0.124,-0.062 0.218,-0.073 0.093,-0.012 0.214,-0.017 0.363,-0.017 H 0 v -0.838 h -0.727 c -0.246,0 -0.456,0.016 -0.631,0.05 -0.175,0.034 -0.317,0.095 -0.425,0.184 -0.108,0.09 -0.188,0.217 -0.24,0.381 -0.052,0.163 -0.078,0.379 -0.078,0.648 v 3.677 H -3.085 V 0 h 0.984 v 1.732 h 0.95 V 0 Z"
             style="fill:#3b55ae;fill-opacity:1;fill-rule:nonzero;stroke:none"
             id="path4439" /></g><g
           id="g4445"
           transform="translate(253.8424,497.8949)"><path
             d="m 0,0 c -0.432,-0.328 -0.976,-0.492 -1.632,-0.492 -0.462,0 -0.862,0.075 -1.201,0.224 -0.339,0.149 -0.625,0.357 -0.855,0.625 -0.231,0.269 -0.405,0.589 -0.52,0.962 -0.116,0.372 -0.181,0.778 -0.196,1.218 0,0.439 0.067,0.842 0.202,1.207 0.134,0.365 0.322,0.682 0.564,0.95 0.242,0.268 0.529,0.477 0.86,0.626 0.332,0.149 0.695,0.224 1.09,0.224 0.514,0 0.941,-0.107 1.28,-0.319 C -0.069,5.013 0.203,4.742 0.408,4.415 0.613,4.087 0.754,3.729 0.833,3.342 0.911,2.954 0.943,2.585 0.927,2.235 h -4.325 c -0.007,-0.253 0.023,-0.494 0.09,-0.721 0.067,-0.227 0.175,-0.428 0.324,-0.603 0.149,-0.175 0.339,-0.315 0.57,-0.419 0.231,-0.105 0.503,-0.157 0.816,-0.157 0.402,0 0.732,0.093 0.989,0.28 0.257,0.186 0.426,0.469 0.508,0.849 H 0.838 C 0.711,0.816 0.432,0.328 0,0 M -0.229,3.71 C -0.315,3.912 -0.43,4.085 -0.576,4.23 -0.721,4.376 -0.893,4.491 -1.09,4.577 -1.287,4.662 -1.505,4.705 -1.744,4.705 -1.989,4.705 -2.211,4.662 -2.409,4.577 -2.606,4.491 -2.776,4.374 -2.917,4.225 -3.059,4.076 -3.17,3.902 -3.253,3.705 -3.334,3.507 -3.383,3.297 -3.398,3.074 h 3.32 C -0.093,3.297 -0.144,3.509 -0.229,3.71"
             style="fill:#3b55ae;fill-opacity:1;fill-rule:nonzero;stroke:none"
             id="path4443" /></g><g
           id="g4449"
           transform="translate(256.6139,503.3042)"><path
             d="m 0,0 v -1.218 h 0.022 c 0.231,0.469 0.514,0.816 0.85,1.039 0.335,0.224 0.76,0.328 1.274,0.313 v -1.006 c -0.38,0 -0.704,-0.052 -0.972,-0.156 C 0.905,-1.133 0.689,-1.285 0.525,-1.486 0.362,-1.688 0.242,-1.932 0.168,-2.218 0.093,-2.505 0.056,-2.835 0.056,-3.208 v -2.57 h -0.95 V 0 Z"
             style="fill:#3b55ae;fill-opacity:1;fill-rule:nonzero;stroke:none"
             id="path4447" /></g><g
           id="g4453"
           transform="translate(260.5702,503.3042)"><path
             d="m 0,0 v -0.916 h 0.022 c 0.395,0.7 1.021,1.05 1.878,1.05 0.38,0 0.697,-0.052 0.95,-0.156 0.253,-0.105 0.458,-0.25 0.615,-0.436 0.156,-0.187 0.266,-0.408 0.329,-0.665 0.064,-0.257 0.095,-0.542 0.095,-0.855 v -3.8 H 2.94 v 3.912 c 0,0.357 -0.105,0.64 -0.313,0.849 -0.209,0.209 -0.496,0.313 -0.861,0.313 -0.291,0 -0.542,-0.045 -0.754,-0.134 C 0.799,-0.927 0.622,-1.054 0.481,-1.218 0.339,-1.382 0.233,-1.574 0.162,-1.794 0.091,-2.014 0.056,-2.254 0.056,-2.515 v -3.263 h -0.95 V 0 Z"
             style="fill:#3b55ae;fill-opacity:1;fill-rule:nonzero;stroke:none"
             id="path4451" /></g><g
           id="g4457"
           transform="translate(271.0092,497.5484)"><path
             d="m 0,0 c -0.164,-0.097 -0.391,-0.145 -0.682,-0.145 -0.246,0 -0.441,0.069 -0.586,0.206 -0.146,0.138 -0.219,0.364 -0.219,0.677 -0.26,-0.313 -0.564,-0.539 -0.91,-0.677 -0.347,-0.137 -0.721,-0.206 -1.124,-0.206 -0.26,0 -0.508,0.03 -0.743,0.089 -0.234,0.06 -0.438,0.153 -0.609,0.279 -0.171,0.127 -0.307,0.293 -0.408,0.498 -0.1,0.205 -0.151,0.453 -0.151,0.743 0,0.328 0.056,0.596 0.168,0.805 0.112,0.208 0.259,0.378 0.441,0.508 0.183,0.131 0.391,0.229 0.626,0.297 0.235,0.067 0.475,0.122 0.721,0.167 0.261,0.052 0.509,0.091 0.743,0.117 0.235,0.027 0.442,0.064 0.621,0.112 0.179,0.049 0.32,0.119 0.424,0.213 0.105,0.093 0.157,0.229 0.157,0.408 0,0.208 -0.039,0.376 -0.117,0.502 C -1.727,4.72 -1.827,4.817 -1.95,4.884 -2.073,4.951 -2.211,4.996 -2.364,5.018 -2.517,5.041 -2.667,5.052 -2.816,5.052 -3.219,5.052 -3.554,4.975 -3.822,4.823 -4.091,4.67 -4.236,4.381 -4.258,3.957 h -0.95 c 0.015,0.357 0.089,0.659 0.223,0.905 0.134,0.246 0.313,0.445 0.537,0.598 0.223,0.152 0.478,0.262 0.765,0.329 0.287,0.068 0.594,0.101 0.922,0.101 0.261,0 0.52,-0.019 0.777,-0.056 0.257,-0.037 0.49,-0.113 0.699,-0.229 0.208,-0.115 0.376,-0.276 0.503,-0.485 0.126,-0.208 0.19,-0.479 0.19,-0.814 V 1.34 c 0,-0.223 0.013,-0.387 0.039,-0.491 0.026,-0.104 0.113,-0.156 0.262,-0.156 0.082,0 0.179,0.015 0.291,0.045 z M -1.542,2.962 C -1.661,2.873 -1.818,2.808 -2.012,2.767 -2.206,2.726 -2.409,2.693 -2.621,2.667 -2.833,2.641 -3.048,2.611 -3.263,2.578 -3.48,2.544 -3.673,2.491 -3.845,2.417 -4.016,2.343 -4.156,2.237 -4.264,2.1 -4.372,1.962 -4.426,1.775 -4.426,1.538 c 0,-0.156 0.032,-0.287 0.095,-0.395 0.063,-0.107 0.146,-0.195 0.246,-0.261 0.101,-0.067 0.218,-0.115 0.352,-0.145 0.134,-0.029 0.276,-0.044 0.425,-0.044 0.313,0 0.581,0.043 0.805,0.128 0.223,0.085 0.406,0.192 0.547,0.322 0.142,0.13 0.246,0.271 0.313,0.423 0.067,0.152 0.101,0.295 0.101,0.428 z"
             style="fill:#3b55ae;fill-opacity:1;fill-rule:nonzero;stroke:none"
             id="path4455" /></g><g
           id="g4461"
           transform="translate(274.3622,503.3042)"><path
             d="m 0,0 v -0.838 h -1.151 v -3.588 c 0,-0.111 0.009,-0.201 0.028,-0.268 0.018,-0.067 0.054,-0.119 0.106,-0.156 0.052,-0.038 0.124,-0.062 0.218,-0.073 0.093,-0.012 0.214,-0.017 0.363,-0.017 H 0 v -0.838 h -0.727 c -0.246,0 -0.456,0.016 -0.631,0.05 -0.175,0.034 -0.317,0.095 -0.425,0.184 -0.108,0.09 -0.188,0.217 -0.24,0.381 -0.052,0.163 -0.078,0.379 -0.078,0.648 v 3.677 H -3.085 V 0 h 0.984 v 1.732 h 0.95 V 0 Z"
             style="fill:#3b55ae;fill-opacity:1;fill-rule:nonzero;stroke:none"
             id="path4459" /></g></g></g><path
       d="m 267.11103,942.36012 h 0.95 v 1.162 h -0.95 z m 0,-6.818 h 0.95 v 5.778 h -0.95 z"
       style="fill:#3b55ae;fill-opacity:1;fill-rule:nonzero;stroke:none"
       id="path4467" /><g
       id="g4483"
       transform="translate(-8.3569673,438.01612)"><g
         id="g4481"
         clip-path="url(#clipPath1584)"><g
           id="g4471"
           transform="translate(277.7595,501.5999)"><path
             d="M 0,0 C 0.119,0.369 0.298,0.689 0.536,0.961 0.775,1.233 1.069,1.447 1.419,1.604 1.769,1.76 2.172,1.839 2.627,1.839 3.088,1.839 3.493,1.76 3.839,1.604 4.185,1.447 4.478,1.233 4.716,0.961 4.955,0.689 5.134,0.369 5.253,0 5.372,-0.369 5.432,-0.766 5.432,-1.19 5.432,-1.615 5.372,-2.01 5.253,-2.375 5.134,-2.74 4.955,-3.059 4.716,-3.331 4.478,-3.603 4.185,-3.815 3.839,-3.968 3.493,-4.12 3.088,-4.197 2.627,-4.197 2.172,-4.197 1.769,-4.12 1.419,-3.968 1.069,-3.815 0.775,-3.603 0.536,-3.331 0.298,-3.059 0.119,-2.74 0,-2.375 c -0.119,0.365 -0.179,0.76 -0.179,1.185 0,0.424 0.06,0.821 0.179,1.19 m 0.967,-2.123 c 0.093,-0.273 0.221,-0.5 0.385,-0.682 0.164,-0.183 0.356,-0.323 0.576,-0.419 0.22,-0.097 0.452,-0.146 0.699,-0.146 0.245,0 0.478,0.049 0.698,0.146 0.22,0.096 0.412,0.236 0.576,0.419 0.163,0.182 0.292,0.409 0.385,0.682 0.093,0.271 0.14,0.582 0.14,0.933 0,0.35 -0.047,0.661 -0.14,0.933 C 4.193,0.015 4.064,0.244 3.901,0.43 3.737,0.616 3.545,0.758 3.325,0.855 3.105,0.952 2.872,1 2.627,1 2.38,1 2.148,0.952 1.928,0.855 1.708,0.758 1.516,0.616 1.352,0.43 1.188,0.244 1.06,0.015 0.967,-0.257 0.873,-0.529 0.827,-0.84 0.827,-1.19 c 0,-0.351 0.046,-0.662 0.14,-0.933"
             style="fill:#3b55ae;fill-opacity:1;fill-rule:nonzero;stroke:none"
             id="path4469" /></g><g
           id="g4475"
           transform="translate(285.2029,503.3042)"><path
             d="m 0,0 v -0.916 h 0.022 c 0.395,0.7 1.021,1.05 1.878,1.05 0.38,0 0.697,-0.052 0.95,-0.156 0.253,-0.105 0.458,-0.25 0.615,-0.436 0.156,-0.187 0.266,-0.408 0.329,-0.665 0.064,-0.257 0.095,-0.542 0.095,-0.855 v -3.8 H 2.94 v 3.912 c 0,0.357 -0.105,0.64 -0.313,0.849 -0.209,0.209 -0.496,0.313 -0.861,0.313 -0.291,0 -0.542,-0.045 -0.754,-0.134 C 0.799,-0.927 0.622,-1.054 0.481,-1.218 0.339,-1.382 0.233,-1.574 0.162,-1.794 0.091,-2.014 0.056,-2.254 0.056,-2.515 v -3.263 h -0.95 V 0 Z"
             style="fill:#3b55ae;fill-opacity:1;fill-rule:nonzero;stroke:none"
             id="path4473" /></g><g
           id="g4479"
           transform="translate(295.6417,497.5484)"><path
             d="m 0,0 c -0.164,-0.097 -0.391,-0.145 -0.682,-0.145 -0.246,0 -0.441,0.069 -0.587,0.206 -0.145,0.138 -0.218,0.364 -0.218,0.677 -0.26,-0.313 -0.564,-0.539 -0.91,-0.677 -0.347,-0.137 -0.721,-0.206 -1.124,-0.206 -0.26,0 -0.508,0.03 -0.743,0.089 -0.234,0.06 -0.438,0.153 -0.609,0.279 -0.171,0.127 -0.307,0.293 -0.408,0.498 -0.1,0.205 -0.151,0.453 -0.151,0.743 0,0.328 0.056,0.596 0.168,0.805 0.112,0.208 0.259,0.378 0.441,0.508 0.183,0.131 0.391,0.229 0.626,0.297 0.235,0.067 0.475,0.122 0.721,0.167 0.261,0.052 0.509,0.091 0.743,0.117 0.235,0.027 0.442,0.064 0.621,0.112 0.178,0.049 0.32,0.119 0.424,0.213 0.105,0.093 0.157,0.229 0.157,0.408 0,0.208 -0.039,0.376 -0.117,0.502 C -1.727,4.72 -1.827,4.817 -1.95,4.884 -2.073,4.951 -2.211,4.996 -2.364,5.018 -2.517,5.041 -2.668,5.052 -2.817,5.052 -3.219,5.052 -3.554,4.975 -3.822,4.823 -4.091,4.67 -4.236,4.381 -4.258,3.957 h -0.95 c 0.015,0.357 0.089,0.659 0.223,0.905 0.134,0.246 0.313,0.445 0.537,0.598 0.223,0.152 0.478,0.262 0.765,0.329 0.287,0.068 0.594,0.101 0.922,0.101 0.261,0 0.52,-0.019 0.777,-0.056 0.257,-0.037 0.49,-0.113 0.699,-0.229 0.208,-0.115 0.376,-0.276 0.503,-0.485 0.126,-0.208 0.19,-0.479 0.19,-0.814 V 1.34 c 0,-0.223 0.013,-0.387 0.039,-0.491 0.026,-0.104 0.113,-0.156 0.262,-0.156 0.082,0 0.179,0.015 0.291,0.045 z M -1.542,2.962 C -1.661,2.873 -1.818,2.808 -2.012,2.767 -2.206,2.726 -2.409,2.693 -2.621,2.667 -2.833,2.641 -3.048,2.611 -3.263,2.578 -3.48,2.544 -3.673,2.491 -3.845,2.417 -4.016,2.343 -4.156,2.237 -4.264,2.1 -4.372,1.962 -4.426,1.775 -4.426,1.538 c 0,-0.156 0.032,-0.287 0.095,-0.395 0.063,-0.107 0.146,-0.195 0.246,-0.261 0.101,-0.067 0.218,-0.115 0.352,-0.145 0.134,-0.029 0.276,-0.044 0.425,-0.044 0.313,0 0.581,0.043 0.804,0.128 0.224,0.085 0.407,0.192 0.548,0.322 0.142,0.13 0.246,0.271 0.313,0.423 0.067,0.152 0.101,0.295 0.101,0.428 z"
             style="fill:#3b55ae;fill-opacity:1;fill-rule:nonzero;stroke:none"
             id="path4477" /></g></g></g><path
       d="m 288.22403,935.54212 h 0.95 v 7.979 h -0.95 z"
       style="fill:#3b55ae;fill-opacity:1;fill-rule:nonzero;stroke:none"
       id="path4485" /><g
       id="g4505"
       transform="translate(-8.3569673,438.01612)"><g
         id="g4503"
         clip-path="url(#clipPath1606)"><g
           id="g4489"
           transform="translate(305.7675,505.506)"><path
             d="M 0,0 C 0.805,0 1.414,-0.207 1.827,-0.62 2.241,-1.034 2.448,-1.613 2.448,-2.358 2.448,-3.103 2.241,-3.685 1.827,-4.102 1.414,-4.519 0.805,-4.724 0,-4.717 H -2.436 V -7.98 H -3.498 V 0 Z m -0.357,-3.822 c 0.603,-0.008 1.044,0.115 1.324,0.369 0.279,0.253 0.419,0.618 0.419,1.095 0,0.477 -0.14,0.84 -0.419,1.089 -0.28,0.25 -0.721,0.375 -1.324,0.375 h -2.079 v -2.928 z"
             style="fill:#3b55ae;fill-opacity:1;fill-rule:nonzero;stroke:none"
             id="path4487" /></g><g
           id="g4493"
           transform="translate(314.0269,497.5484)"><path
             d="m 0,0 c -0.164,-0.097 -0.391,-0.145 -0.682,-0.145 -0.246,0 -0.441,0.069 -0.587,0.206 -0.145,0.138 -0.218,0.364 -0.218,0.677 -0.26,-0.313 -0.564,-0.539 -0.91,-0.677 -0.347,-0.137 -0.721,-0.206 -1.124,-0.206 -0.26,0 -0.508,0.03 -0.743,0.089 -0.234,0.06 -0.438,0.153 -0.609,0.279 -0.171,0.127 -0.307,0.293 -0.408,0.498 -0.1,0.205 -0.151,0.453 -0.151,0.743 0,0.328 0.056,0.596 0.168,0.805 0.112,0.208 0.259,0.378 0.441,0.508 0.183,0.131 0.391,0.229 0.626,0.297 0.235,0.067 0.475,0.122 0.721,0.167 0.261,0.052 0.509,0.091 0.743,0.117 0.235,0.027 0.442,0.064 0.621,0.112 0.178,0.049 0.32,0.119 0.424,0.213 0.105,0.093 0.157,0.229 0.157,0.408 0,0.208 -0.039,0.376 -0.117,0.502 C -1.727,4.72 -1.827,4.817 -1.95,4.884 -2.073,4.951 -2.211,4.996 -2.364,5.018 -2.517,5.041 -2.668,5.052 -2.817,5.052 -3.219,5.052 -3.554,4.975 -3.822,4.823 -4.091,4.67 -4.236,4.381 -4.258,3.957 h -0.95 c 0.015,0.357 0.089,0.659 0.223,0.905 0.134,0.246 0.313,0.445 0.537,0.598 0.223,0.152 0.478,0.262 0.765,0.329 0.287,0.068 0.594,0.101 0.922,0.101 0.261,0 0.52,-0.019 0.777,-0.056 0.257,-0.037 0.49,-0.113 0.699,-0.229 0.208,-0.115 0.376,-0.276 0.503,-0.485 0.126,-0.208 0.19,-0.479 0.19,-0.814 V 1.34 c 0,-0.223 0.013,-0.387 0.039,-0.491 0.026,-0.104 0.113,-0.156 0.262,-0.156 0.082,0 0.179,0.015 0.291,0.045 z M -1.542,2.962 C -1.661,2.873 -1.818,2.808 -2.012,2.767 -2.206,2.726 -2.409,2.693 -2.621,2.667 -2.833,2.641 -3.048,2.611 -3.263,2.578 -3.48,2.544 -3.673,2.491 -3.845,2.417 -4.016,2.343 -4.156,2.237 -4.264,2.1 -4.372,1.962 -4.426,1.775 -4.426,1.538 c 0,-0.156 0.032,-0.287 0.095,-0.395 0.063,-0.107 0.146,-0.195 0.246,-0.261 0.101,-0.067 0.218,-0.115 0.352,-0.145 0.134,-0.029 0.275,-0.044 0.425,-0.044 0.313,0 0.581,0.043 0.804,0.128 0.224,0.085 0.406,0.192 0.548,0.322 0.142,0.13 0.246,0.271 0.313,0.423 0.067,0.152 0.101,0.295 0.101,0.428 z"
             style="fill:#3b55ae;fill-opacity:1;fill-rule:nonzero;stroke:none"
             id="path4491" /></g><g
           id="g4497"
           transform="translate(315.7703,503.3042)"><path
             d="m 0,0 v -1.218 h 0.022 c 0.231,0.469 0.514,0.816 0.85,1.039 0.335,0.224 0.76,0.328 1.274,0.313 v -1.006 c -0.38,0 -0.704,-0.052 -0.972,-0.156 C 0.905,-1.133 0.689,-1.285 0.525,-1.486 0.362,-1.688 0.242,-1.932 0.168,-2.218 0.093,-2.505 0.056,-2.835 0.056,-3.208 v -2.57 h -0.95 V 0 Z"
             style="fill:#3b55ae;fill-opacity:1;fill-rule:nonzero;stroke:none"
             id="path4495" /></g><g
           id="g4501"
           transform="translate(321.3253,503.3042)"><path
             d="m 0,0 v -0.838 h -1.151 v -3.588 c 0,-0.111 0.009,-0.201 0.028,-0.268 0.018,-0.067 0.054,-0.119 0.106,-0.156 0.052,-0.038 0.124,-0.062 0.218,-0.073 0.093,-0.012 0.214,-0.017 0.363,-0.017 H 0 v -0.838 h -0.727 c -0.246,0 -0.456,0.016 -0.631,0.05 -0.175,0.034 -0.317,0.095 -0.425,0.184 -0.108,0.09 -0.188,0.217 -0.24,0.381 -0.052,0.163 -0.078,0.379 -0.078,0.648 v 3.677 H -3.085 V 0 h 0.984 v 1.732 h 0.95 V 0 Z"
             style="fill:#3b55ae;fill-opacity:1;fill-rule:nonzero;stroke:none"
             id="path4499" /></g></g></g><path
       d="m 314.07403,942.36012 h 0.95 v 1.162 h -0.95 z m 0,-6.818 h 0.95 v 5.778 h -0.95 z"
       style="fill:#3b55ae;fill-opacity:1;fill-rule:nonzero;stroke:none"
       id="path4507" /><g
       id="g4515"
       transform="translate(-8.3569673,438.01612)"><g
         id="g4513"
         clip-path="url(#clipPath1632)"><g
           id="g4511"
           transform="translate(328.3101,502.2984)"><path
             d="m 0,0 c -0.238,0.201 -0.559,0.302 -0.961,0.302 -0.343,0 -0.63,-0.064 -0.861,-0.19 -0.231,-0.127 -0.415,-0.295 -0.553,-0.503 -0.138,-0.209 -0.237,-0.449 -0.296,-0.721 -0.06,-0.272 -0.09,-0.553 -0.09,-0.844 0,-0.268 0.032,-0.529 0.095,-0.782 0.064,-0.254 0.162,-0.479 0.297,-0.676 0.134,-0.198 0.309,-0.356 0.525,-0.475 0.216,-0.12 0.473,-0.179 0.771,-0.179 0.469,0 0.836,0.123 1.101,0.368 0.264,0.246 0.426,0.593 0.486,1.04 h 0.973 c -0.105,-0.715 -0.371,-1.267 -0.8,-1.654 -0.428,-0.388 -1.011,-0.582 -1.749,-0.582 -0.44,0 -0.829,0.071 -1.168,0.213 -0.339,0.141 -0.622,0.343 -0.849,0.604 -0.228,0.26 -0.399,0.571 -0.514,0.933 -0.116,0.361 -0.173,0.758 -0.173,1.19 0,0.432 0.055,0.836 0.167,1.213 0.112,0.376 0.281,0.704 0.509,0.983 0.227,0.28 0.512,0.499 0.855,0.66 0.342,0.16 0.741,0.24 1.196,0.24 0.327,0 0.635,-0.039 0.922,-0.117 0.286,-0.079 0.54,-0.2 0.76,-0.363 0.219,-0.164 0.4,-0.371 0.542,-0.621 0.141,-0.25 0.231,-0.546 0.268,-0.888 H 0.469 C 0.395,-0.484 0.238,-0.201 0,0"
             style="fill:#3b55ae;fill-opacity:1;fill-rule:nonzero;stroke:none"
             id="path4509" /></g></g></g><path
       d="m 322.55703,935.54212 h 0.95 v 7.979 h -0.95 z"
       style="fill:#3b55ae;fill-opacity:1;fill-rule:nonzero;stroke:none"
       id="path4517" /><g
       id="g4541"
       transform="translate(-8.3569673,438.01612)"><g
         id="g4539"
         clip-path="url(#clipPath1646)"><g
           id="g4521"
           transform="translate(337.4301,497.8949)"><path
             d="m 0,0 c -0.432,-0.328 -0.976,-0.492 -1.632,-0.492 -0.462,0 -0.862,0.075 -1.201,0.224 -0.339,0.149 -0.624,0.357 -0.855,0.625 -0.231,0.269 -0.405,0.589 -0.52,0.962 -0.116,0.372 -0.181,0.778 -0.196,1.218 0,0.439 0.067,0.842 0.202,1.207 0.134,0.365 0.322,0.682 0.564,0.95 0.242,0.268 0.529,0.477 0.861,0.626 0.331,0.149 0.694,0.224 1.089,0.224 0.514,0 0.941,-0.107 1.28,-0.319 C -0.069,5.013 0.203,4.742 0.408,4.415 0.613,4.087 0.755,3.729 0.833,3.342 0.911,2.954 0.943,2.585 0.927,2.235 h -4.325 c -0.007,-0.253 0.023,-0.494 0.09,-0.721 0.067,-0.227 0.175,-0.428 0.324,-0.603 0.149,-0.175 0.339,-0.315 0.57,-0.419 0.231,-0.105 0.503,-0.157 0.816,-0.157 0.402,0 0.732,0.093 0.989,0.28 0.257,0.186 0.426,0.469 0.508,0.849 H 0.838 C 0.711,0.816 0.432,0.328 0,0 M -0.229,3.71 C -0.315,3.912 -0.43,4.085 -0.576,4.23 -0.721,4.376 -0.893,4.491 -1.09,4.577 -1.287,4.662 -1.505,4.705 -1.744,4.705 -1.989,4.705 -2.211,4.662 -2.409,4.577 -2.606,4.491 -2.776,4.374 -2.917,4.225 -3.059,4.076 -3.17,3.902 -3.253,3.705 -3.334,3.507 -3.383,3.297 -3.398,3.074 h 3.32 C -0.093,3.297 -0.143,3.509 -0.229,3.71"
             style="fill:#3b55ae;fill-opacity:1;fill-rule:nonzero;stroke:none"
             id="path4519" /></g><g
           id="g4525"
           transform="translate(240.777,494.3293)"><path
             d="M 0,0 C 0.805,0 1.414,-0.207 1.827,-0.62 2.241,-1.034 2.448,-1.613 2.448,-2.358 2.448,-3.103 2.241,-3.684 1.827,-4.102 1.414,-4.519 0.805,-4.724 0,-4.716 H -2.436 V -7.98 H -3.498 V 0 Z m -0.357,-3.822 c 0.603,-0.008 1.044,0.115 1.324,0.369 0.279,0.253 0.419,0.618 0.419,1.095 0,0.477 -0.14,0.84 -0.419,1.089 -0.28,0.25 -0.721,0.375 -1.324,0.375 h -2.079 v -2.928 z"
             style="fill:#3b55ae;fill-opacity:1;fill-rule:nonzero;stroke:none"
             id="path4523" /></g><g
           id="g4529"
           transform="translate(245.3148,494.3293)"><path
             d="m 0,0 v -3.051 h 0.022 c 0.075,0.179 0.179,0.33 0.313,0.452 0.134,0.124 0.285,0.224 0.453,0.302 0.168,0.079 0.342,0.136 0.525,0.174 0.183,0.037 0.36,0.055 0.531,0.055 0.38,0 0.697,-0.052 0.95,-0.156 0.253,-0.104 0.458,-0.25 0.615,-0.436 0.156,-0.186 0.266,-0.408 0.33,-0.665 0.063,-0.257 0.094,-0.542 0.094,-0.855 v -3.8 H 2.884 v 3.912 c 0,0.358 -0.105,0.641 -0.313,0.849 C 2.362,-3.01 2.075,-2.906 1.71,-2.906 1.419,-2.906 1.168,-2.951 0.956,-3.04 0.743,-3.129 0.566,-3.256 0.425,-3.42 0.283,-3.584 0.177,-3.776 0.106,-3.996 0.035,-4.216 0,-4.456 0,-4.716 V -7.98 H -0.95 V 0 Z"
             style="fill:#3b55ae;fill-opacity:1;fill-rule:nonzero;stroke:none"
             id="path4527" /></g><g
           id="g4533"
           transform="translate(252.8478,485.5782)"><path
             d="m 0,0 c -0.112,-0.283 -0.222,-0.521 -0.33,-0.715 -0.108,-0.194 -0.227,-0.352 -0.357,-0.475 -0.131,-0.123 -0.276,-0.213 -0.436,-0.269 -0.161,-0.055 -0.345,-0.084 -0.554,-0.084 -0.111,0 -0.223,0.008 -0.335,0.023 -0.111,0.015 -0.22,0.041 -0.324,0.078 v 0.872 c 0.082,-0.037 0.177,-0.069 0.285,-0.095 0.108,-0.026 0.199,-0.039 0.274,-0.039 0.194,0 0.356,0.046 0.486,0.139 0.13,0.094 0.229,0.226 0.296,0.397 l 0.391,0.973 -2.291,5.744 h 1.073 l 1.688,-4.727 h 0.022 l 1.621,4.727 h 1.006 z"
             style="fill:#3b55ae;fill-opacity:1;fill-rule:nonzero;stroke:none"
             id="path4531" /></g><g
           id="g4537"
           transform="translate(256.8939,487.6403)"><path
             d="m 0,0 c 0.09,-0.145 0.207,-0.261 0.352,-0.347 0.145,-0.085 0.309,-0.147 0.492,-0.184 0.182,-0.037 0.37,-0.056 0.564,-0.056 0.149,0 0.306,0.011 0.47,0.034 0.163,0.022 0.314,0.063 0.452,0.123 0.138,0.059 0.252,0.147 0.341,0.262 0.09,0.116 0.134,0.263 0.134,0.442 0,0.246 -0.093,0.432 -0.279,0.559 C 2.34,0.959 2.107,1.062 1.827,1.14 1.548,1.218 1.244,1.289 0.917,1.352 0.589,1.416 0.285,1.505 0.005,1.621 c -0.279,0.115 -0.512,0.277 -0.698,0.486 -0.186,0.208 -0.279,0.499 -0.279,0.872 0,0.29 0.065,0.54 0.195,0.748 0.131,0.209 0.298,0.379 0.503,0.509 0.205,0.13 0.436,0.227 0.693,0.291 C 0.676,4.59 0.931,4.622 1.185,4.622 1.513,4.622 1.814,4.593 2.09,4.538 2.365,4.482 2.61,4.385 2.822,4.247 3.034,4.109 3.204,3.923 3.331,3.688 3.457,3.454 3.532,3.161 3.554,2.811 H 2.604 C 2.589,2.997 2.541,3.152 2.459,3.275 2.377,3.398 2.272,3.496 2.146,3.571 2.019,3.645 1.88,3.7 1.727,3.733 1.574,3.766 1.419,3.783 1.263,3.783 1.121,3.783 0.978,3.772 0.833,3.75 0.687,3.727 0.555,3.688 0.436,3.632 0.317,3.576 0.22,3.502 0.145,3.409 0.071,3.316 0.034,3.194 0.034,3.045 0.034,2.882 0.091,2.746 0.207,2.638 0.322,2.53 0.469,2.44 0.648,2.369 0.827,2.299 1.028,2.239 1.252,2.191 1.475,2.142 1.699,2.092 1.922,2.04 2.161,1.988 2.394,1.924 2.621,1.85 2.848,1.775 3.049,1.677 3.224,1.553 3.399,1.431 3.541,1.276 3.649,1.09 3.757,0.903 3.811,0.672 3.811,0.397 3.811,0.046 3.739,-0.244 3.593,-0.475 3.448,-0.706 3.258,-0.893 3.023,-1.034 2.788,-1.176 2.524,-1.274 2.23,-1.33 1.935,-1.386 1.643,-1.414 1.352,-1.414 c -0.32,0 -0.626,0.034 -0.916,0.101 -0.291,0.067 -0.548,0.177 -0.771,0.329 -0.224,0.153 -0.403,0.354 -0.537,0.604 -0.134,0.25 -0.209,0.553 -0.223,0.911 h 0.95 C -0.138,0.322 -0.089,0.145 0,0"
             style="fill:#3b55ae;fill-opacity:1;fill-rule:nonzero;stroke:none"
             id="path4535" /></g></g></g><path
       d="m 253.45503,931.18412 h 0.949 v 1.162 h -0.949 z m 0,-6.819 h 0.949 v 5.778 h -0.949 z"
       style="fill:#3b55ae;fill-opacity:1;fill-rule:nonzero;stroke:none"
       id="path4543" /><g
       id="g4607"
       transform="translate(-8.3569673,438.01612)"><g
         id="g4605"
         clip-path="url(#clipPath1676)"><g
           id="g4547"
           transform="translate(267.6901,491.1218)"><path
             d="m 0,0 c -0.238,0.201 -0.559,0.302 -0.961,0.302 -0.343,0 -0.63,-0.063 -0.861,-0.19 -0.231,-0.127 -0.415,-0.295 -0.553,-0.503 -0.138,-0.209 -0.237,-0.449 -0.296,-0.721 -0.06,-0.272 -0.09,-0.553 -0.09,-0.844 0,-0.268 0.032,-0.529 0.095,-0.782 0.064,-0.254 0.162,-0.479 0.297,-0.676 0.134,-0.198 0.309,-0.356 0.525,-0.475 0.216,-0.12 0.473,-0.179 0.771,-0.179 0.469,0 0.836,0.123 1.101,0.368 0.264,0.246 0.426,0.593 0.486,1.04 h 0.973 c -0.105,-0.715 -0.371,-1.267 -0.8,-1.654 -0.428,-0.388 -1.011,-0.581 -1.749,-0.581 -0.44,0 -0.829,0.07 -1.168,0.212 -0.339,0.141 -0.622,0.343 -0.849,0.604 -0.228,0.26 -0.399,0.571 -0.514,0.933 -0.116,0.361 -0.173,0.758 -0.173,1.19 0,0.432 0.055,0.836 0.167,1.213 0.112,0.376 0.281,0.704 0.509,0.983 0.227,0.28 0.512,0.499 0.855,0.66 0.342,0.16 0.741,0.24 1.196,0.24 0.327,0 0.635,-0.039 0.922,-0.117 0.286,-0.079 0.54,-0.2 0.76,-0.363 0.219,-0.164 0.4,-0.371 0.542,-0.621 0.141,-0.25 0.231,-0.546 0.268,-0.888 H 0.469 C 0.395,-0.484 0.238,-0.201 0,0"
             style="fill:#3b55ae;fill-opacity:1;fill-rule:nonzero;stroke:none"
             id="path4545" /></g><g
           id="g4551"
           transform="translate(270.9648,487.6403)"><path
             d="m 0,0 c 0.09,-0.145 0.207,-0.261 0.352,-0.347 0.145,-0.085 0.309,-0.147 0.492,-0.184 0.182,-0.037 0.37,-0.056 0.564,-0.056 0.149,0 0.306,0.011 0.47,0.034 0.163,0.022 0.314,0.063 0.452,0.123 0.138,0.059 0.252,0.147 0.341,0.262 0.09,0.116 0.134,0.263 0.134,0.442 0,0.246 -0.093,0.432 -0.279,0.559 C 2.34,0.959 2.107,1.062 1.827,1.14 1.548,1.218 1.244,1.289 0.917,1.352 0.589,1.416 0.285,1.505 0.005,1.621 c -0.279,0.115 -0.512,0.277 -0.698,0.486 -0.186,0.208 -0.28,0.499 -0.28,0.872 0,0.29 0.066,0.54 0.196,0.748 0.131,0.209 0.298,0.379 0.503,0.509 0.205,0.13 0.436,0.227 0.693,0.291 C 0.676,4.59 0.931,4.622 1.185,4.622 1.513,4.622 1.814,4.593 2.09,4.538 2.365,4.482 2.61,4.385 2.822,4.247 3.034,4.109 3.204,3.923 3.331,3.688 3.457,3.454 3.532,3.161 3.554,2.811 H 2.604 C 2.589,2.997 2.541,3.152 2.459,3.275 2.377,3.398 2.272,3.496 2.146,3.571 2.019,3.645 1.88,3.7 1.727,3.733 1.574,3.766 1.419,3.783 1.263,3.783 1.121,3.783 0.978,3.772 0.833,3.75 0.687,3.727 0.555,3.688 0.436,3.632 0.317,3.576 0.22,3.502 0.145,3.409 0.071,3.316 0.034,3.194 0.034,3.045 0.034,2.882 0.091,2.746 0.207,2.638 0.322,2.53 0.469,2.44 0.648,2.369 0.827,2.299 1.028,2.239 1.252,2.191 1.475,2.142 1.699,2.092 1.922,2.04 2.161,1.988 2.394,1.924 2.621,1.85 2.848,1.775 3.049,1.677 3.224,1.553 3.399,1.431 3.541,1.276 3.649,1.09 3.757,0.903 3.811,0.672 3.811,0.397 3.811,0.046 3.739,-0.244 3.593,-0.475 3.448,-0.706 3.258,-0.893 3.023,-1.034 2.788,-1.176 2.524,-1.274 2.23,-1.33 1.935,-1.386 1.643,-1.414 1.352,-1.414 c -0.32,0 -0.626,0.034 -0.916,0.101 -0.291,0.067 -0.548,0.177 -0.771,0.329 -0.224,0.153 -0.403,0.354 -0.537,0.604 -0.134,0.25 -0.209,0.553 -0.223,0.911 h 0.95 C -0.138,0.322 -0.089,0.145 0,0"
             style="fill:#3b55ae;fill-opacity:1;fill-rule:nonzero;stroke:none"
             id="path4549" /></g><g
           id="g4555"
           transform="translate(278.8834,491.9098)"><path
             d="M 0,0 C 0.16,0.503 0.401,0.948 0.721,1.335 1.041,1.723 1.44,2.032 1.917,2.263 2.394,2.494 2.949,2.61 3.582,2.61 4.215,2.61 4.771,2.494 5.247,2.263 5.724,2.032 6.123,1.723 6.443,1.335 6.764,0.948 7.004,0.503 7.164,0 c 0.16,-0.503 0.24,-1.026 0.24,-1.57 0,-0.544 -0.08,-1.068 -0.24,-1.571 C 7.004,-3.644 6.764,-4.089 6.443,-4.476 6.123,-4.864 5.724,-5.171 5.247,-5.398 4.771,-5.626 4.215,-5.739 3.582,-5.739 2.949,-5.739 2.394,-5.626 1.917,-5.398 1.44,-5.171 1.041,-4.864 0.721,-4.476 0.401,-4.089 0.16,-3.644 0,-3.141 c -0.16,0.503 -0.24,1.027 -0.24,1.571 0,0.544 0.08,1.067 0.24,1.57 m 0.978,-2.761 c 0.104,-0.391 0.268,-0.743 0.492,-1.056 0.223,-0.313 0.51,-0.564 0.86,-0.754 0.35,-0.19 0.768,-0.285 1.252,-0.285 0.485,0 0.901,0.095 1.252,0.285 0.35,0.19 0.637,0.441 0.86,0.754 0.224,0.313 0.388,0.665 0.492,1.056 0.105,0.391 0.157,0.788 0.157,1.191 0,0.402 -0.052,0.799 -0.157,1.19 C 6.082,0.011 5.918,0.363 5.694,0.676 5.471,0.989 5.184,1.24 4.834,1.43 4.483,1.621 4.067,1.716 3.582,1.716 3.098,1.716 2.68,1.621 2.33,1.43 1.98,1.24 1.693,0.989 1.47,0.676 1.246,0.363 1.082,0.011 0.978,-0.38 0.873,-0.771 0.822,-1.168 0.822,-1.57 c 0,-0.403 0.051,-0.8 0.156,-1.191"
             style="fill:#3b55ae;fill-opacity:1;fill-rule:nonzero;stroke:none"
             id="path4553" /></g><g
           id="g4559"
           transform="translate(291.3173,486.3494)"><path
             d="M 0,0 V 0.917 H -0.022 C -0.224,0.559 -0.481,0.296 -0.794,0.129 -1.107,-0.039 -1.475,-0.123 -1.9,-0.123 c -0.38,0 -0.697,0.05 -0.95,0.151 -0.254,0.101 -0.458,0.244 -0.615,0.43 C -3.621,0.645 -3.731,0.866 -3.794,1.123 -3.858,1.38 -3.89,1.665 -3.89,1.978 v 3.8 h 0.95 V 1.866 c 0,-0.357 0.105,-0.64 0.313,-0.849 0.209,-0.208 0.496,-0.313 0.861,-0.313 0.291,0 0.542,0.045 0.755,0.134 0.212,0.09 0.389,0.216 0.53,0.38 0.142,0.164 0.248,0.356 0.319,0.576 0.071,0.219 0.106,0.46 0.106,0.721 v 3.263 h 0.95 L 0.894,0 Z"
             style="fill:#3b55ae;fill-opacity:1;fill-rule:nonzero;stroke:none"
             id="path4557" /></g><g
           id="g4563"
           transform="translate(296.1122,492.1276)"><path
             d="m 0,0 v -0.838 h -1.151 v -3.588 c 0,-0.112 0.009,-0.201 0.028,-0.268 0.018,-0.067 0.054,-0.119 0.106,-0.156 0.052,-0.038 0.124,-0.062 0.218,-0.073 0.093,-0.012 0.214,-0.017 0.363,-0.017 H 0 v -0.838 h -0.727 c -0.246,0 -0.456,0.016 -0.631,0.05 -0.175,0.034 -0.317,0.095 -0.425,0.184 -0.108,0.09 -0.188,0.217 -0.24,0.381 -0.052,0.163 -0.078,0.379 -0.078,0.648 v 3.677 H -3.085 V 0 h 0.984 v 1.732 h 0.95 V 0 Z"
             style="fill:#3b55ae;fill-opacity:1;fill-rule:nonzero;stroke:none"
             id="path4561" /></g><g
           id="g4567"
           transform="translate(298.023,492.1276)"><path
             d="m 0,0 v -1.218 h 0.022 c 0.231,0.469 0.514,0.816 0.85,1.039 0.335,0.224 0.76,0.328 1.274,0.313 v -1.006 c -0.38,0 -0.704,-0.052 -0.972,-0.156 C 0.905,-1.133 0.689,-1.285 0.525,-1.486 0.362,-1.688 0.242,-1.932 0.168,-2.218 0.093,-2.505 0.056,-2.835 0.056,-3.208 v -2.57 h -0.95 V 0 Z"
             style="fill:#3b55ae;fill-opacity:1;fill-rule:nonzero;stroke:none"
             id="path4565" /></g><g
           id="g4571"
           transform="translate(304.7711,486.7183)"><path
             d="m 0,0 c -0.432,-0.328 -0.976,-0.492 -1.631,-0.492 -0.462,0 -0.862,0.075 -1.201,0.224 -0.338,0.149 -0.623,0.357 -0.854,0.625 -0.231,0.269 -0.404,0.589 -0.519,0.962 -0.116,0.372 -0.181,0.778 -0.196,1.218 0,0.439 0.067,0.842 0.201,1.207 0.134,0.365 0.322,0.682 0.564,0.95 0.242,0.268 0.529,0.477 0.86,0.626 0.332,0.149 0.695,0.224 1.089,0.224 0.514,0 0.94,-0.107 1.279,-0.319 C -0.069,5.013 0.203,4.742 0.408,4.415 0.612,4.087 0.754,3.729 0.832,3.342 0.91,2.954 0.942,2.585 0.927,2.235 h -4.322 c -0.008,-0.253 0.022,-0.494 0.089,-0.721 0.067,-0.227 0.175,-0.428 0.324,-0.603 0.149,-0.175 0.339,-0.315 0.569,-0.419 0.231,-0.105 0.503,-0.157 0.816,-0.157 0.402,0 0.731,0.093 0.988,0.28 0.257,0.186 0.426,0.469 0.508,0.849 H 0.838 C 0.711,0.816 0.432,0.328 0,0 M -0.229,3.71 C -0.315,3.912 -0.43,4.085 -0.575,4.23 -0.72,4.376 -0.892,4.491 -1.089,4.577 -1.286,4.662 -1.504,4.705 -1.742,4.705 -1.988,4.705 -2.21,4.662 -2.407,4.577 -2.604,4.491 -2.774,4.374 -2.915,4.225 -3.057,4.076 -3.168,3.902 -3.25,3.705 -3.332,3.507 -3.381,3.297 -3.395,3.074 h 3.317 C -0.093,3.297 -0.143,3.509 -0.229,3.71"
             style="fill:#3b55ae;fill-opacity:1;fill-rule:nonzero;stroke:none"
             id="path4569" /></g><g
           id="g4575"
           transform="translate(311.8036,486.3718)"><path
             d="m 0,0 c -0.164,-0.097 -0.391,-0.145 -0.682,-0.145 -0.246,0 -0.441,0.069 -0.586,0.206 -0.146,0.138 -0.219,0.364 -0.219,0.677 -0.26,-0.313 -0.564,-0.539 -0.91,-0.677 -0.347,-0.137 -0.721,-0.206 -1.124,-0.206 -0.26,0 -0.508,0.03 -0.743,0.089 -0.234,0.06 -0.438,0.153 -0.609,0.279 -0.171,0.127 -0.307,0.293 -0.408,0.498 -0.1,0.205 -0.151,0.453 -0.151,0.743 0,0.328 0.056,0.596 0.168,0.805 0.112,0.208 0.259,0.378 0.441,0.508 0.183,0.131 0.391,0.229 0.626,0.297 0.235,0.067 0.475,0.122 0.721,0.167 0.261,0.052 0.509,0.091 0.743,0.117 0.235,0.027 0.442,0.064 0.621,0.112 0.179,0.049 0.32,0.119 0.424,0.213 0.105,0.093 0.157,0.229 0.157,0.408 0,0.208 -0.039,0.376 -0.117,0.502 C -1.727,4.72 -1.827,4.817 -1.95,4.884 -2.073,4.951 -2.211,4.996 -2.364,5.018 -2.517,5.041 -2.667,5.052 -2.817,5.052 -3.219,5.052 -3.554,4.975 -3.822,4.823 -4.091,4.67 -4.236,4.381 -4.258,3.957 h -0.95 c 0.015,0.357 0.089,0.659 0.223,0.905 0.134,0.246 0.313,0.445 0.537,0.598 0.223,0.152 0.478,0.262 0.765,0.329 0.287,0.068 0.594,0.101 0.922,0.101 0.261,0 0.52,-0.019 0.777,-0.056 0.257,-0.037 0.49,-0.113 0.699,-0.229 0.208,-0.115 0.376,-0.276 0.503,-0.485 0.126,-0.208 0.19,-0.479 0.19,-0.814 V 1.34 c 0,-0.223 0.013,-0.387 0.039,-0.491 0.026,-0.104 0.113,-0.156 0.262,-0.156 0.082,0 0.179,0.015 0.291,0.045 z M -1.542,2.962 C -1.661,2.873 -1.818,2.808 -2.012,2.767 -2.206,2.726 -2.409,2.693 -2.621,2.667 -2.833,2.641 -3.048,2.611 -3.263,2.578 -3.48,2.544 -3.673,2.491 -3.845,2.417 -4.016,2.343 -4.156,2.237 -4.264,2.1 -4.372,1.962 -4.426,1.775 -4.426,1.538 c 0,-0.156 0.032,-0.287 0.095,-0.395 0.063,-0.107 0.146,-0.195 0.246,-0.261 0.101,-0.067 0.218,-0.115 0.352,-0.145 0.134,-0.029 0.276,-0.044 0.425,-0.044 0.313,0 0.581,0.043 0.804,0.128 0.224,0.085 0.407,0.192 0.548,0.322 0.142,0.13 0.246,0.271 0.313,0.423 0.067,0.152 0.101,0.295 0.101,0.428 z"
             style="fill:#3b55ae;fill-opacity:1;fill-rule:nonzero;stroke:none"
             id="path4573" /></g><g
           id="g4579"
           transform="translate(316.1403,491.1218)"><path
             d="m 0,0 c -0.238,0.201 -0.559,0.302 -0.961,0.302 -0.343,0 -0.63,-0.063 -0.861,-0.19 -0.231,-0.127 -0.415,-0.295 -0.553,-0.503 -0.138,-0.209 -0.237,-0.449 -0.296,-0.721 -0.06,-0.272 -0.09,-0.553 -0.09,-0.844 0,-0.268 0.032,-0.529 0.095,-0.782 0.064,-0.254 0.162,-0.479 0.297,-0.676 0.134,-0.198 0.309,-0.356 0.525,-0.475 0.216,-0.12 0.473,-0.179 0.771,-0.179 0.469,0 0.836,0.123 1.101,0.368 0.264,0.246 0.426,0.593 0.486,1.04 h 0.973 c -0.105,-0.715 -0.371,-1.267 -0.8,-1.654 -0.428,-0.388 -1.011,-0.581 -1.749,-0.581 -0.44,0 -0.829,0.07 -1.168,0.212 -0.339,0.141 -0.622,0.343 -0.849,0.604 -0.228,0.26 -0.399,0.571 -0.514,0.933 -0.116,0.361 -0.173,0.758 -0.173,1.19 0,0.432 0.055,0.836 0.167,1.213 0.112,0.376 0.281,0.704 0.509,0.983 0.227,0.28 0.512,0.499 0.855,0.66 0.342,0.16 0.741,0.24 1.196,0.24 0.327,0 0.635,-0.039 0.922,-0.117 0.286,-0.079 0.54,-0.2 0.76,-0.363 0.219,-0.164 0.4,-0.371 0.542,-0.621 0.141,-0.25 0.231,-0.546 0.268,-0.888 H 0.469 C 0.395,-0.484 0.239,-0.201 0,0"
             style="fill:#3b55ae;fill-opacity:1;fill-rule:nonzero;stroke:none"
             id="path4577" /></g><g
           id="g4583"
           transform="translate(319.6382,494.3293)"><path
             d="m 0,0 v -3.051 h 0.022 c 0.075,0.179 0.179,0.33 0.313,0.452 0.134,0.124 0.285,0.224 0.453,0.302 0.168,0.079 0.342,0.136 0.525,0.174 0.183,0.037 0.36,0.055 0.531,0.055 0.38,0 0.697,-0.052 0.95,-0.156 0.253,-0.104 0.458,-0.25 0.615,-0.436 0.156,-0.186 0.266,-0.408 0.33,-0.665 0.063,-0.257 0.094,-0.542 0.094,-0.855 v -3.8 H 2.884 v 3.912 c 0,0.358 -0.105,0.641 -0.313,0.849 C 2.362,-3.01 2.075,-2.906 1.71,-2.906 1.419,-2.906 1.168,-2.951 0.956,-3.04 0.743,-3.129 0.566,-3.256 0.425,-3.42 0.283,-3.584 0.177,-3.776 0.106,-3.996 0.035,-4.216 0,-4.456 0,-4.716 V -7.98 H -0.95 V 0 Z"
             style="fill:#3b55ae;fill-opacity:1;fill-rule:nonzero;stroke:none"
             id="path4581" /></g><g
           id="g4587"
           transform="translate(332.972,486.4443)"><path
             d="m 0,0 c -0.462,-0.183 -0.928,-0.274 -1.397,-0.274 -0.596,0 -1.129,0.11 -1.599,0.33 -0.469,0.22 -0.868,0.516 -1.195,0.888 -0.328,0.373 -0.578,0.801 -0.749,1.286 -0.172,0.484 -0.257,0.987 -0.257,1.509 0,0.581 0.08,1.134 0.24,1.659 0.16,0.526 0.398,0.986 0.715,1.381 0.317,0.394 0.712,0.709 1.185,0.944 0.473,0.235 1.026,0.352 1.66,0.352 0.432,0 0.84,-0.05 1.224,-0.151 C 0.21,7.824 0.553,7.665 0.855,7.449 1.157,7.233 1.41,6.959 1.615,6.628 1.82,6.296 1.959,5.896 2.034,5.426 H 0.972 C 0.92,5.732 0.823,5.994 0.682,6.214 0.54,6.434 0.365,6.615 0.156,6.756 -0.052,6.898 -0.289,7.004 -0.553,7.075 -0.818,7.146 -1.099,7.181 -1.397,7.181 -1.882,7.181 -2.297,7.084 -2.643,6.89 -2.99,6.697 -3.273,6.442 -3.493,6.125 -3.713,5.808 -3.875,5.447 -3.979,5.041 -4.083,4.634 -4.136,4.219 -4.136,3.794 c 0,-0.417 0.06,-0.817 0.179,-1.201 0.119,-0.384 0.295,-0.723 0.526,-1.017 0.231,-0.295 0.516,-0.529 0.855,-0.704 0.339,-0.175 0.732,-0.263 1.179,-0.263 0.417,0 0.786,0.067 1.106,0.201 0.32,0.134 0.591,0.319 0.811,0.554 0.219,0.234 0.385,0.51 0.497,0.827 0.112,0.316 0.16,0.657 0.145,1.022 H -1.386 V 4.107 H 2.112 V -0.095 H 1.442 L 1.162,0.9 C 0.849,0.482 0.462,0.183 0,0"
             style="fill:#3b55ae;fill-opacity:1;fill-rule:nonzero;stroke:none"
             id="path4585" /></g><g
           id="g4591"
           transform="translate(337.3529,492.1276)"><path
             d="m 0,0 v -1.218 h 0.022 c 0.231,0.469 0.514,0.816 0.85,1.039 0.335,0.224 0.76,0.328 1.274,0.313 v -1.006 c -0.38,0 -0.704,-0.052 -0.972,-0.156 C 0.905,-1.133 0.689,-1.285 0.525,-1.486 0.362,-1.688 0.242,-1.932 0.168,-2.218 0.093,-2.505 0.056,-2.835 0.056,-3.208 v -2.57 h -0.95 V 0 Z"
             style="fill:#3b55ae;fill-opacity:1;fill-rule:nonzero;stroke:none"
             id="path4589" /></g><g
           id="g4595"
           transform="translate(339.8792,490.4233)"><path
             d="M 0,0 C 0.119,0.369 0.298,0.689 0.536,0.961 0.775,1.233 1.069,1.447 1.419,1.604 1.769,1.76 2.172,1.839 2.627,1.839 3.088,1.839 3.493,1.76 3.839,1.604 4.185,1.447 4.478,1.233 4.716,0.961 4.955,0.689 5.134,0.369 5.253,0 5.372,-0.369 5.432,-0.766 5.432,-1.19 5.432,-1.615 5.372,-2.01 5.253,-2.375 5.134,-2.74 4.955,-3.059 4.716,-3.331 4.478,-3.603 4.185,-3.815 3.839,-3.968 3.493,-4.12 3.088,-4.197 2.627,-4.197 2.172,-4.197 1.769,-4.12 1.419,-3.968 1.069,-3.815 0.775,-3.603 0.536,-3.331 0.298,-3.059 0.119,-2.74 0,-2.375 c -0.119,0.365 -0.179,0.76 -0.179,1.185 0,0.424 0.06,0.821 0.179,1.19 m 0.967,-2.123 c 0.093,-0.273 0.221,-0.5 0.385,-0.682 0.164,-0.183 0.356,-0.323 0.576,-0.419 0.22,-0.097 0.452,-0.146 0.699,-0.146 0.245,0 0.478,0.049 0.698,0.146 0.22,0.096 0.412,0.236 0.576,0.419 0.163,0.182 0.292,0.409 0.385,0.682 0.093,0.271 0.14,0.582 0.14,0.933 0,0.35 -0.047,0.661 -0.14,0.933 C 4.193,0.015 4.064,0.244 3.901,0.43 3.737,0.616 3.545,0.758 3.325,0.855 3.105,0.952 2.872,1 2.627,1 2.38,1 2.148,0.952 1.928,0.855 1.708,0.758 1.516,0.616 1.352,0.43 1.188,0.244 1.06,0.015 0.967,-0.257 0.873,-0.529 0.827,-0.84 0.827,-1.19 c 0,-0.351 0.046,-0.662 0.14,-0.933"
             style="fill:#3b55ae;fill-opacity:1;fill-rule:nonzero;stroke:none"
             id="path4593" /></g><g
           id="g4599"
           transform="translate(350.3179,486.3494)"><path
             d="M 0,0 V 0.917 H -0.022 C -0.224,0.559 -0.481,0.296 -0.794,0.129 -1.107,-0.039 -1.475,-0.123 -1.9,-0.123 c -0.38,0 -0.697,0.05 -0.95,0.151 -0.254,0.101 -0.459,0.244 -0.615,0.43 C -3.622,0.645 -3.732,0.866 -3.794,1.123 -3.858,1.38 -3.89,1.665 -3.89,1.978 v 3.8 h 0.95 V 1.866 c 0,-0.357 0.105,-0.64 0.313,-0.849 0.209,-0.208 0.496,-0.313 0.861,-0.313 0.291,0 0.542,0.045 0.754,0.134 0.213,0.09 0.39,0.216 0.531,0.38 0.142,0.164 0.248,0.356 0.319,0.576 0.071,0.219 0.106,0.46 0.106,0.721 v 3.263 h 0.95 L 0.894,0 Z"
             style="fill:#3b55ae;fill-opacity:1;fill-rule:nonzero;stroke:none"
             id="path4597" /></g><g
           id="g4603"
           transform="translate(353.6262,492.1276)"><path
             d="m 0,0 v -0.782 h 0.022 c 0.157,0.32 0.403,0.553 0.738,0.698 0.335,0.146 0.704,0.218 1.106,0.218 0.448,0 0.837,-0.082 1.168,-0.246 0.332,-0.164 0.608,-0.385 0.828,-0.665 0.219,-0.279 0.385,-0.602 0.497,-0.966 0.112,-0.366 0.168,-0.753 0.168,-1.163 0,-0.41 -0.055,-0.797 -0.162,-1.162 C 4.256,-4.433 4.092,-4.752 3.873,-5.024 3.653,-5.296 3.377,-5.51 3.046,-5.666 2.714,-5.823 2.328,-5.901 1.889,-5.901 c -0.142,0 -0.3,0.015 -0.475,0.044 -0.175,0.03 -0.349,0.079 -0.52,0.146 -0.171,0.067 -0.334,0.158 -0.486,0.274 -0.153,0.115 -0.281,0.259 -0.386,0.43 H 0 V -7.98 H -0.95 V 0 Z M 3.414,-2.051 C 3.343,-1.794 3.236,-1.565 3.09,-1.364 2.945,-1.162 2.759,-1.002 2.531,-0.883 2.304,-0.764 2.038,-0.704 1.732,-0.704 1.412,-0.704 1.14,-0.767 0.917,-0.894 0.693,-1.021 0.51,-1.186 0.369,-1.391 0.227,-1.597 0.125,-1.829 0.061,-2.09 -0.002,-2.351 -0.034,-2.615 -0.034,-2.883 -0.034,-3.167 0,-3.441 0.067,-3.705 0.134,-3.97 0.24,-4.202 0.386,-4.404 0.531,-4.605 0.719,-4.767 0.95,-4.89 c 0.231,-0.123 0.51,-0.184 0.838,-0.184 0.328,0 0.602,0.063 0.822,0.19 0.219,0.127 0.396,0.294 0.531,0.503 0.134,0.208 0.231,0.447 0.29,0.715 0.06,0.268 0.09,0.544 0.09,0.827 0,0.269 -0.036,0.531 -0.107,0.788"
             style="fill:#3b55ae;fill-opacity:1;fill-rule:nonzero;stroke:none"
             id="path4601" /></g></g></g><g
       id="g4615"
       transform="translate(228.89083,1050.432)"><path
         d="M 0,0 V -1.125"
         style="fill:none;stroke:#231f20;stroke-width:0.25;stroke-linecap:butt;stroke-linejoin:miter;stroke-miterlimit:4;stroke-dasharray:none;stroke-opacity:1"
         id="path4613" /></g><g
       id="g4619"
       transform="translate(349.67073,1050.432)"><path
         d="M 0,0 V -1.125"
         style="fill:none;stroke:#231f20;stroke-width:0.25;stroke-linecap:butt;stroke-linejoin:miter;stroke-miterlimit:4;stroke-dasharray:none;stroke-opacity:1"
         id="path4617" /></g><g
       id="g4631"
       transform="translate(228.64083,983.16862)"><path
         d="M 0,0 V -1.125"
         style="fill:none;stroke:#231f20;stroke-width:0.25;stroke-linecap:butt;stroke-linejoin:miter;stroke-miterlimit:4;stroke-dasharray:none;stroke-opacity:1"
         id="path4629" /></g></g></svg>
