<?xml version="1.0" encoding="UTF-8" standalone="no"?>
<!-- Created with Inkscape (http://www.inkscape.org/) -->

<svg
   version="1.1"
   id="svg2"
   width="793.70135"
   height="1122.52"
   viewBox="0 0 793.70135 1122.52"
   sodipodi:docname="IPPOG Graphic Charter.pdf"
   xmlns:inkscape="http://www.inkscape.org/namespaces/inkscape"
   xmlns:sodipodi="http://sodipodi.sourceforge.net/DTD/sodipodi-0.dtd"
   xmlns="http://www.w3.org/2000/svg"
   xmlns:svg="http://www.w3.org/2000/svg">
  <defs
     id="defs6" />
  <sodipodi:namedview
     id="namedview4"
     pagecolor="#ffffff"
     bordercolor="#000000"
     borderopacity="0.25"
     inkscape:showpageshadow="2"
     inkscape:pageopacity="0.0"
     inkscape:pagecheckerboard="0"
     inkscape:deskcolor="#d1d1d1"
     showgrid="false" />
  <g
     id="g10"
     inkscape:groupmode="layer"
     inkscape:label="Page 1"
     transform="matrix(1.3333333,0,0,1.3333333,0,8.0630005e-6)">
    <g
       id="g12">
      <path
         d="M 0,0 H 595.5 V 841.891 H 0 Z"
         style="fill:#ffffff;fill-opacity:1;fill-rule:evenodd;stroke:none"
         id="path14" />
      <path
         d="m 82.402,808.289 h 3.617 v 33.602 h -3.617 z"
         style="fill:#9fc91f;fill-opacity:1;fill-rule:nonzero;stroke:none"
         id="path16" />
      <path
         d="m 32.184,804.832 h 3.617 v 37.059 h -3.617 z"
         style="fill:#9fc91f;fill-opacity:1;fill-rule:nonzero;stroke:none"
         id="path18" />
      <path
         d="m 132.625,801.68 h 3.613 v 40.211 h -3.613 z"
         style="fill:#9fc91f;fill-opacity:1;fill-rule:nonzero;stroke:none"
         id="path20" />
      <path
         d="m 69.848,817.723 h 3.617 v 24.168 h -3.617 z"
         style="fill:#4d97d8;fill-opacity:1;fill-rule:nonzero;stroke:none"
         id="path22" />
      <path
         d="m 19.629,787.359 h 3.617 v 54.531 h -3.617 z"
         style="fill:#4d97d8;fill-opacity:1;fill-rule:nonzero;stroke:none"
         id="path24" />
      <path
         d="m 170.289,788.027 h 3.617 v 53.863 h -3.617 z"
         style="fill:#4d97d8;fill-opacity:1;fill-rule:nonzero;stroke:none"
         id="path26" />
      <path
         d="m 120.07,761.438 h 3.613 v 80.453 h -3.613 z"
         style="fill:#4d97d8;fill-opacity:1;fill-rule:nonzero;stroke:none"
         id="path28" />
      <path
         d="m 57.293,793.762 h 3.617 v 48.129 h -3.617 z"
         style="fill:#c3116d;fill-opacity:1;fill-rule:nonzero;stroke:none"
         id="path30" />
      <path
         d="m 7.074,819.473 h 3.617 v 22.418 H 7.074 Z"
         style="fill:#c3116d;fill-opacity:1;fill-rule:nonzero;stroke:none"
         id="path32" />
      <path
         d="m 157.734,819.473 h 3.617 v 22.418 h -3.617 z"
         style="fill:#c3116d;fill-opacity:1;fill-rule:nonzero;stroke:none"
         id="path34" />
      <path
         d="m 107.516,785.578 h 3.613 v 56.312 h -3.613 z"
         style="fill:#c3116d;fill-opacity:1;fill-rule:nonzero;stroke:none"
         id="path36" />
      <path
         d="m 44.738,823.969 h 3.617 v 17.922 h -3.617 z"
         style="fill:#3b55ae;fill-opacity:1;fill-rule:nonzero;stroke:none"
         id="path38" />
      <path
         d="m 145.18,775.875 h 3.617 v 66.016 h -3.617 z"
         style="fill:#3b55ae;fill-opacity:1;fill-rule:nonzero;stroke:none"
         id="path40" />
      <path
         d="m 94.961,772.117 h 3.613 v 69.773 h -3.613 z"
         style="fill:#3b55ae;fill-opacity:1;fill-rule:nonzero;stroke:none"
         id="path42" />
      <path
         d="m 320.91,808.289 h 3.617 v 33.602 h -3.617 z"
         style="fill:#9fc91f;fill-opacity:1;fill-rule:nonzero;stroke:none"
         id="path44" />
      <path
         d="m 270.691,804.832 h 3.617 v 37.059 h -3.617 z"
         style="fill:#9fc91f;fill-opacity:1;fill-rule:nonzero;stroke:none"
         id="path46" />
      <path
         d="m 220.473,801.68 h 3.613 v 40.211 h -3.613 z"
         style="fill:#9fc91f;fill-opacity:1;fill-rule:nonzero;stroke:none"
         id="path48" />
      <path
         d="m 371.133,801.68 h 3.613 v 40.211 h -3.613 z"
         style="fill:#9fc91f;fill-opacity:1;fill-rule:nonzero;stroke:none"
         id="path50" />
      <path
         d="m 308.355,817.723 h 3.617 v 24.168 h -3.617 z"
         style="fill:#4d97d8;fill-opacity:1;fill-rule:nonzero;stroke:none"
         id="path52" />
      <path
         d="m 258.137,787.359 h 3.617 v 54.531 h -3.617 z"
         style="fill:#4d97d8;fill-opacity:1;fill-rule:nonzero;stroke:none"
         id="path54" />
      <path
         d="m 207.914,775.875 h 3.617 v 66.016 h -3.617 z"
         style="fill:#4d97d8;fill-opacity:1;fill-rule:nonzero;stroke:none"
         id="path56" />
      <path
         d="m 408.797,788.027 h 3.613 v 53.863 h -3.613 z"
         style="fill:#4d97d8;fill-opacity:1;fill-rule:nonzero;stroke:none"
         id="path58" />
      <path
         d="m 358.574,761.438 h 3.617 v 80.453 h -3.617 z"
         style="fill:#4d97d8;fill-opacity:1;fill-rule:nonzero;stroke:none"
         id="path60" />
      <path
         d="m 295.801,793.762 h 3.617 v 48.129 h -3.617 z"
         style="fill:#c3116d;fill-opacity:1;fill-rule:nonzero;stroke:none"
         id="path62" />
      <path
         d="m 245.582,819.473 h 3.613 v 22.418 h -3.613 z"
         style="fill:#c3116d;fill-opacity:1;fill-rule:nonzero;stroke:none"
         id="path64" />
      <path
         d="m 195.359,769.66 h 3.617 v 72.23 h -3.617 z"
         style="fill:#c3116d;fill-opacity:1;fill-rule:nonzero;stroke:none"
         id="path66" />
      <path
         d="m 396.242,819.473 h 3.613 v 22.418 h -3.613 z"
         style="fill:#c3116d;fill-opacity:1;fill-rule:nonzero;stroke:none"
         id="path68" />
      <path
         d="m 346.02,785.578 h 3.617 v 56.312 h -3.617 z"
         style="fill:#c3116d;fill-opacity:1;fill-rule:nonzero;stroke:none"
         id="path70" />
      <path
         d="m 283.246,823.969 h 3.617 v 17.922 h -3.617 z"
         style="fill:#3b55ae;fill-opacity:1;fill-rule:nonzero;stroke:none"
         id="path72" />
      <path
         d="m 233.027,769.785 h 3.613 v 72.105 h -3.613 z"
         style="fill:#3b55ae;fill-opacity:1;fill-rule:nonzero;stroke:none"
         id="path74" />
      <path
         d="m 182.805,772.117 h 3.617 v 69.773 h -3.617 z"
         style="fill:#3b55ae;fill-opacity:1;fill-rule:nonzero;stroke:none"
         id="path76" />
      <path
         d="m 383.688,775.875 h 3.613 v 66.016 h -3.613 z"
         style="fill:#3b55ae;fill-opacity:1;fill-rule:nonzero;stroke:none"
         id="path78" />
      <path
         d="m 333.465,772.117 h 3.617 v 69.773 h -3.617 z"
         style="fill:#3b55ae;fill-opacity:1;fill-rule:nonzero;stroke:none"
         id="path80" />
      <path
         d="m 559.477,808.289 h 3.613 v 33.602 h -3.613 z"
         style="fill:#9fc91f;fill-opacity:1;fill-rule:nonzero;stroke:none"
         id="path82" />
      <path
         d="m 509.254,804.832 h 3.617 v 37.059 h -3.617 z"
         style="fill:#9fc91f;fill-opacity:1;fill-rule:nonzero;stroke:none"
         id="path84" />
      <path
         d="m 459.035,801.68 h 3.617 v 40.211 h -3.617 z"
         style="fill:#9fc91f;fill-opacity:1;fill-rule:nonzero;stroke:none"
         id="path86" />
      <path
         d="m 546.922,817.723 h 3.613 v 24.168 h -3.613 z"
         style="fill:#4d97d8;fill-opacity:1;fill-rule:nonzero;stroke:none"
         id="path88" />
      <path
         d="m 496.699,787.359 h 3.617 v 54.531 h -3.617 z"
         style="fill:#4d97d8;fill-opacity:1;fill-rule:nonzero;stroke:none"
         id="path90" />
      <path
         d="m 446.48,775.875 h 3.617 v 66.016 h -3.617 z"
         style="fill:#4d97d8;fill-opacity:1;fill-rule:nonzero;stroke:none"
         id="path92" />
      <path
         d="m 534.363,793.762 h 3.617 v 48.129 h -3.617 z"
         style="fill:#c3116d;fill-opacity:1;fill-rule:nonzero;stroke:none"
         id="path94" />
      <path
         d="m 484.145,819.473 h 3.617 v 22.418 h -3.617 z"
         style="fill:#c3116d;fill-opacity:1;fill-rule:nonzero;stroke:none"
         id="path96" />
      <path
         d="m 433.926,769.66 h 3.613 v 72.23 h -3.613 z"
         style="fill:#c3116d;fill-opacity:1;fill-rule:nonzero;stroke:none"
         id="path98" />
      <path
         d="m 584.586,785.578 h 3.613 v 56.312 h -3.613 z"
         style="fill:#c3116d;fill-opacity:1;fill-rule:nonzero;stroke:none"
         id="path100" />
      <path
         d="m 521.809,823.969 h 3.617 v 17.922 h -3.617 z"
         style="fill:#3b55ae;fill-opacity:1;fill-rule:nonzero;stroke:none"
         id="path102" />
      <path
         d="m 471.59,769.785 h 3.617 v 72.105 h -3.617 z"
         style="fill:#3b55ae;fill-opacity:1;fill-rule:nonzero;stroke:none"
         id="path104" />
      <path
         d="m 421.371,772.117 h 3.613 v 69.773 h -3.613 z"
         style="fill:#3b55ae;fill-opacity:1;fill-rule:nonzero;stroke:none"
         id="path106" />
      <path
         d="m 572.031,772.117 h 3.613 v 69.773 h -3.613 z"
         style="fill:#3b55ae;fill-opacity:1;fill-rule:nonzero;stroke:none"
         id="path108" />
    </g>
    <g
       id="g487"
       transform="matrix(1,0,0,-1,0,841.89099)">
      <path
         d="M 0,0 H 595.5 V 841.891 H 0 Z"
         style="display:none;fill:#ffffff;fill-opacity:1;fill-rule:evenodd;stroke:none"
         id="path391" />
      <path
         d="m 82.402,808.289 h 3.617 v 33.602 h -3.617 z"
         style="fill:#9fc91f;fill-opacity:1;fill-rule:nonzero;stroke:none"
         id="path393" />
      <path
         d="m 32.184,804.832 h 3.617 v 37.059 h -3.617 z"
         style="fill:#9fc91f;fill-opacity:1;fill-rule:nonzero;stroke:none"
         id="path395" />
      <path
         d="m 132.625,801.68 h 3.613 v 40.211 h -3.613 z"
         style="fill:#9fc91f;fill-opacity:1;fill-rule:nonzero;stroke:none"
         id="path397" />
      <path
         d="m 69.848,817.723 h 3.617 v 24.168 h -3.617 z"
         style="fill:#4d97d8;fill-opacity:1;fill-rule:nonzero;stroke:none"
         id="path399" />
      <path
         d="m 19.629,787.359 h 3.617 v 54.531 h -3.617 z"
         style="fill:#4d97d8;fill-opacity:1;fill-rule:nonzero;stroke:none"
         id="path401" />
      <path
         d="m 170.289,788.027 h 3.617 v 53.863 h -3.617 z"
         style="fill:#4d97d8;fill-opacity:1;fill-rule:nonzero;stroke:none"
         id="path403" />
      <path
         d="m 120.07,761.438 h 3.613 v 80.453 h -3.613 z"
         style="fill:#4d97d8;fill-opacity:1;fill-rule:nonzero;stroke:none"
         id="path405" />
      <path
         d="m 57.293,793.762 h 3.617 v 48.129 h -3.617 z"
         style="fill:#c3116d;fill-opacity:1;fill-rule:nonzero;stroke:none"
         id="path407" />
      <path
         d="m 7.074,819.473 h 3.617 v 22.418 H 7.074 Z"
         style="fill:#c3116d;fill-opacity:1;fill-rule:nonzero;stroke:none"
         id="path409" />
      <path
         d="m 157.734,819.473 h 3.617 v 22.418 h -3.617 z"
         style="fill:#c3116d;fill-opacity:1;fill-rule:nonzero;stroke:none"
         id="path411" />
      <path
         d="m 107.516,785.578 h 3.613 v 56.312 h -3.613 z"
         style="fill:#c3116d;fill-opacity:1;fill-rule:nonzero;stroke:none"
         id="path413" />
      <path
         d="m 44.738,823.969 h 3.617 v 17.922 h -3.617 z"
         style="fill:#3b55ae;fill-opacity:1;fill-rule:nonzero;stroke:none"
         id="path415" />
      <path
         d="m 145.18,775.875 h 3.617 v 66.016 h -3.617 z"
         style="fill:#3b55ae;fill-opacity:1;fill-rule:nonzero;stroke:none"
         id="path417" />
      <path
         d="m 94.961,772.117 h 3.613 v 69.773 h -3.613 z"
         style="fill:#3b55ae;fill-opacity:1;fill-rule:nonzero;stroke:none"
         id="path419" />
      <path
         d="m 320.91,808.289 h 3.617 v 33.602 h -3.617 z"
         style="fill:#9fc91f;fill-opacity:1;fill-rule:nonzero;stroke:none"
         id="path421" />
      <path
         d="m 270.691,804.832 h 3.617 v 37.059 h -3.617 z"
         style="fill:#9fc91f;fill-opacity:1;fill-rule:nonzero;stroke:none"
         id="path423" />
      <path
         d="m 220.473,801.68 h 3.613 v 40.211 h -3.613 z"
         style="fill:#9fc91f;fill-opacity:1;fill-rule:nonzero;stroke:none"
         id="path425" />
      <path
         d="m 371.133,801.68 h 3.613 v 40.211 h -3.613 z"
         style="fill:#9fc91f;fill-opacity:1;fill-rule:nonzero;stroke:none"
         id="path427" />
      <path
         d="m 308.355,817.723 h 3.617 v 24.168 h -3.617 z"
         style="fill:#4d97d8;fill-opacity:1;fill-rule:nonzero;stroke:none"
         id="path429" />
      <path
         d="m 258.137,787.359 h 3.617 v 54.531 h -3.617 z"
         style="fill:#4d97d8;fill-opacity:1;fill-rule:nonzero;stroke:none"
         id="path431" />
      <path
         d="m 207.914,775.875 h 3.617 v 66.016 h -3.617 z"
         style="fill:#4d97d8;fill-opacity:1;fill-rule:nonzero;stroke:none"
         id="path433" />
      <path
         d="m 408.797,788.027 h 3.613 v 53.863 h -3.613 z"
         style="fill:#4d97d8;fill-opacity:1;fill-rule:nonzero;stroke:none"
         id="path435" />
      <path
         d="m 358.574,761.438 h 3.617 v 80.453 h -3.617 z"
         style="fill:#4d97d8;fill-opacity:1;fill-rule:nonzero;stroke:none"
         id="path437" />
      <path
         d="m 295.801,793.762 h 3.617 v 48.129 h -3.617 z"
         style="fill:#c3116d;fill-opacity:1;fill-rule:nonzero;stroke:none"
         id="path439" />
      <path
         d="m 245.582,819.473 h 3.613 v 22.418 h -3.613 z"
         style="fill:#c3116d;fill-opacity:1;fill-rule:nonzero;stroke:none"
         id="path441" />
      <path
         d="m 195.359,769.66 h 3.617 v 72.23 h -3.617 z"
         style="fill:#c3116d;fill-opacity:1;fill-rule:nonzero;stroke:none"
         id="path443" />
      <path
         d="m 396.242,819.473 h 3.613 v 22.418 h -3.613 z"
         style="fill:#c3116d;fill-opacity:1;fill-rule:nonzero;stroke:none"
         id="path445" />
      <path
         d="m 346.02,785.578 h 3.617 v 56.312 h -3.617 z"
         style="fill:#c3116d;fill-opacity:1;fill-rule:nonzero;stroke:none"
         id="path447" />
      <path
         d="m 283.246,823.969 h 3.617 v 17.922 h -3.617 z"
         style="fill:#3b55ae;fill-opacity:1;fill-rule:nonzero;stroke:none"
         id="path449" />
      <path
         d="m 233.027,769.785 h 3.613 v 72.105 h -3.613 z"
         style="fill:#3b55ae;fill-opacity:1;fill-rule:nonzero;stroke:none"
         id="path451" />
      <path
         d="m 182.805,772.117 h 3.617 v 69.773 h -3.617 z"
         style="fill:#3b55ae;fill-opacity:1;fill-rule:nonzero;stroke:none"
         id="path453" />
      <path
         d="m 383.688,775.875 h 3.613 v 66.016 h -3.613 z"
         style="fill:#3b55ae;fill-opacity:1;fill-rule:nonzero;stroke:none"
         id="path455" />
      <path
         d="m 333.465,772.117 h 3.617 v 69.773 h -3.617 z"
         style="fill:#3b55ae;fill-opacity:1;fill-rule:nonzero;stroke:none"
         id="path457" />
      <path
         d="m 559.477,808.289 h 3.613 v 33.602 h -3.613 z"
         style="fill:#9fc91f;fill-opacity:1;fill-rule:nonzero;stroke:none"
         id="path459" />
      <path
         d="m 509.254,804.832 h 3.617 v 37.059 h -3.617 z"
         style="fill:#9fc91f;fill-opacity:1;fill-rule:nonzero;stroke:none"
         id="path461" />
      <path
         d="m 459.035,801.68 h 3.617 v 40.211 h -3.617 z"
         style="fill:#9fc91f;fill-opacity:1;fill-rule:nonzero;stroke:none"
         id="path463" />
      <path
         d="m 546.922,817.723 h 3.613 v 24.168 h -3.613 z"
         style="fill:#4d97d8;fill-opacity:1;fill-rule:nonzero;stroke:none"
         id="path465" />
      <path
         d="m 496.699,787.359 h 3.617 v 54.531 h -3.617 z"
         style="fill:#4d97d8;fill-opacity:1;fill-rule:nonzero;stroke:none"
         id="path467" />
      <path
         d="m 446.48,775.875 h 3.617 v 66.016 h -3.617 z"
         style="fill:#4d97d8;fill-opacity:1;fill-rule:nonzero;stroke:none"
         id="path469" />
      <path
         d="m 534.363,793.762 h 3.617 v 48.129 h -3.617 z"
         style="fill:#c3116d;fill-opacity:1;fill-rule:nonzero;stroke:none"
         id="path471" />
      <path
         d="m 484.145,819.473 h 3.617 v 22.418 h -3.617 z"
         style="fill:#c3116d;fill-opacity:1;fill-rule:nonzero;stroke:none"
         id="path473" />
      <path
         d="m 433.926,769.66 h 3.613 v 72.23 h -3.613 z"
         style="fill:#c3116d;fill-opacity:1;fill-rule:nonzero;stroke:none"
         id="path475" />
      <path
         d="m 584.586,785.578 h 3.613 v 56.312 h -3.613 z"
         style="fill:#c3116d;fill-opacity:1;fill-rule:nonzero;stroke:none"
         id="path477" />
      <path
         d="m 521.809,823.969 h 3.617 v 17.922 h -3.617 z"
         style="fill:#3b55ae;fill-opacity:1;fill-rule:nonzero;stroke:none"
         id="path479" />
      <path
         d="m 471.59,769.785 h 3.617 v 72.105 h -3.617 z"
         style="fill:#3b55ae;fill-opacity:1;fill-rule:nonzero;stroke:none"
         id="path481" />
      <path
         d="m 421.371,772.117 h 3.613 v 69.773 h -3.613 z"
         style="fill:#3b55ae;fill-opacity:1;fill-rule:nonzero;stroke:none"
         id="path483" />
      <path
         d="m 572.031,772.117 h 3.613 v 69.773 h -3.613 z"
         style="fill:#3b55ae;fill-opacity:1;fill-rule:nonzero;stroke:none"
         id="path485" />
    </g>
  </g>
</svg>
