<?xml version="1.0" encoding="UTF-8" standalone="no"?>
<!-- Created with Inkscape (http://www.inkscape.org/) -->

<svg
   version="1.1"
   id="svg2"
   width="793.70135"
   height="1122.52"
   viewBox="0 0 793.70135 1122.52"
   sodipodi:docname="IPPOG Graphic Charter.pdf"
   xmlns:inkscape="http://www.inkscape.org/namespaces/inkscape"
   xmlns:sodipodi="http://sodipodi.sourceforge.net/DTD/sodipodi-0.dtd"
   xmlns="http://www.w3.org/2000/svg"
   xmlns:svg="http://www.w3.org/2000/svg">
  <defs
     id="defs6" />
  <sodipodi:namedview
     id="namedview4"
     pagecolor="#ffffff"
     bordercolor="#000000"
     borderopacity="0.25"
     inkscape:showpageshadow="2"
     inkscape:pageopacity="0.0"
     inkscape:pagecheckerboard="0"
     inkscape:deskcolor="#d1d1d1"
     showgrid="false" />
  <g
     id="g10"
     inkscape:groupmode="layer"
     inkscape:label="Page 1"
     transform="matrix(1.3333333,0,0,1.3333333,0,8.0630005e-6)">
    <path
       d="M -3.7500001e-8,-6.0472505e-6 H 595.5 V 841.89099 H -3.7500001e-8 Z"
       style="display:inline;fill:#ffffff;fill-opacity:1;fill-rule:evenodd;stroke:none"
       id="path892" />
    <g
       id="g988"
       transform="translate(-3.7500001e-8,10.5)">
      <path
         d="m 82.402,808.289 h 3.617 v 33.602 h -3.617 z"
         style="fill:#9fc91f;fill-opacity:1;fill-rule:nonzero;stroke:none"
         id="path894" />
      <path
         d="m 32.184,804.832 h 3.617 v 37.059 h -3.617 z"
         style="fill:#9fc91f;fill-opacity:1;fill-rule:nonzero;stroke:none"
         id="path896" />
      <path
         d="m 132.625,801.68 h 3.613 v 40.211 h -3.613 z"
         style="fill:#9fc91f;fill-opacity:1;fill-rule:nonzero;stroke:none"
         id="path898" />
      <path
         d="m 69.848,817.723 h 3.617 v 24.168 h -3.617 z"
         style="fill:#4d97d8;fill-opacity:1;fill-rule:nonzero;stroke:none"
         id="path900" />
      <path
         d="m 19.629,787.359 h 3.617 v 54.531 h -3.617 z"
         style="fill:#4d97d8;fill-opacity:1;fill-rule:nonzero;stroke:none"
         id="path902" />
      <path
         d="m 170.289,788.027 h 3.617 v 53.863 h -3.617 z"
         style="fill:#4d97d8;fill-opacity:1;fill-rule:nonzero;stroke:none"
         id="path904" />
      <path
         d="m 120.07,761.438 h 3.613 v 80.453 h -3.613 z"
         style="fill:#4d97d8;fill-opacity:1;fill-rule:nonzero;stroke:none"
         id="path906" />
      <path
         d="m 57.293,793.762 h 3.617 v 48.129 h -3.617 z"
         style="fill:#c3116d;fill-opacity:1;fill-rule:nonzero;stroke:none"
         id="path908" />
      <path
         d="m 7.074,819.473 h 3.617 v 22.418 H 7.074 Z"
         style="fill:#c3116d;fill-opacity:1;fill-rule:nonzero;stroke:none"
         id="path910" />
      <path
         d="m 157.734,819.473 h 3.617 v 22.418 h -3.617 z"
         style="fill:#c3116d;fill-opacity:1;fill-rule:nonzero;stroke:none"
         id="path912" />
      <path
         d="m 107.516,785.578 h 3.613 v 56.312 h -3.613 z"
         style="fill:#c3116d;fill-opacity:1;fill-rule:nonzero;stroke:none"
         id="path914" />
      <path
         d="m 44.738,823.969 h 3.617 v 17.922 h -3.617 z"
         style="fill:#3b55ae;fill-opacity:1;fill-rule:nonzero;stroke:none"
         id="path916" />
      <path
         d="m 145.18,775.875 h 3.617 v 66.016 h -3.617 z"
         style="fill:#3b55ae;fill-opacity:1;fill-rule:nonzero;stroke:none"
         id="path918" />
      <path
         d="m 94.961,772.117 h 3.613 v 69.773 h -3.613 z"
         style="fill:#3b55ae;fill-opacity:1;fill-rule:nonzero;stroke:none"
         id="path920" />
      <path
         d="m 320.91,808.289 h 3.617 v 33.602 h -3.617 z"
         style="fill:#9fc91f;fill-opacity:1;fill-rule:nonzero;stroke:none"
         id="path922" />
      <path
         d="m 270.691,804.832 h 3.617 v 37.059 h -3.617 z"
         style="fill:#9fc91f;fill-opacity:1;fill-rule:nonzero;stroke:none"
         id="path924" />
      <path
         d="m 220.473,801.68 h 3.613 v 40.211 h -3.613 z"
         style="fill:#9fc91f;fill-opacity:1;fill-rule:nonzero;stroke:none"
         id="path926" />
      <path
         d="m 371.133,801.68 h 3.613 v 40.211 h -3.613 z"
         style="fill:#9fc91f;fill-opacity:1;fill-rule:nonzero;stroke:none"
         id="path928" />
      <path
         d="m 308.355,817.723 h 3.617 v 24.168 h -3.617 z"
         style="fill:#4d97d8;fill-opacity:1;fill-rule:nonzero;stroke:none"
         id="path930" />
      <path
         d="m 258.137,787.359 h 3.617 v 54.531 h -3.617 z"
         style="fill:#4d97d8;fill-opacity:1;fill-rule:nonzero;stroke:none"
         id="path932" />
      <path
         d="m 207.914,775.875 h 3.617 v 66.016 h -3.617 z"
         style="fill:#4d97d8;fill-opacity:1;fill-rule:nonzero;stroke:none"
         id="path934" />
      <path
         d="m 408.797,788.027 h 3.613 v 53.863 h -3.613 z"
         style="fill:#4d97d8;fill-opacity:1;fill-rule:nonzero;stroke:none"
         id="path936" />
      <path
         d="m 358.574,761.438 h 3.617 v 80.453 h -3.617 z"
         style="fill:#4d97d8;fill-opacity:1;fill-rule:nonzero;stroke:none"
         id="path938" />
      <path
         d="m 295.801,793.762 h 3.617 v 48.129 h -3.617 z"
         style="fill:#c3116d;fill-opacity:1;fill-rule:nonzero;stroke:none"
         id="path940" />
      <path
         d="m 245.582,819.473 h 3.613 v 22.418 h -3.613 z"
         style="fill:#c3116d;fill-opacity:1;fill-rule:nonzero;stroke:none"
         id="path942" />
      <path
         d="m 195.359,769.66 h 3.617 v 72.23 h -3.617 z"
         style="fill:#c3116d;fill-opacity:1;fill-rule:nonzero;stroke:none"
         id="path944" />
      <path
         d="m 396.242,819.473 h 3.613 v 22.418 h -3.613 z"
         style="fill:#c3116d;fill-opacity:1;fill-rule:nonzero;stroke:none"
         id="path946" />
      <path
         d="m 346.02,785.578 h 3.617 v 56.312 h -3.617 z"
         style="fill:#c3116d;fill-opacity:1;fill-rule:nonzero;stroke:none"
         id="path948" />
      <path
         d="m 283.246,823.969 h 3.617 v 17.922 h -3.617 z"
         style="fill:#3b55ae;fill-opacity:1;fill-rule:nonzero;stroke:none"
         id="path950" />
      <path
         d="m 233.027,769.785 h 3.613 v 72.105 h -3.613 z"
         style="fill:#3b55ae;fill-opacity:1;fill-rule:nonzero;stroke:none"
         id="path952" />
      <path
         d="m 182.805,772.117 h 3.617 v 69.773 h -3.617 z"
         style="fill:#3b55ae;fill-opacity:1;fill-rule:nonzero;stroke:none"
         id="path954" />
      <path
         d="m 383.688,775.875 h 3.613 v 66.016 h -3.613 z"
         style="fill:#3b55ae;fill-opacity:1;fill-rule:nonzero;stroke:none"
         id="path956" />
      <path
         d="m 333.465,772.117 h 3.617 v 69.773 h -3.617 z"
         style="fill:#3b55ae;fill-opacity:1;fill-rule:nonzero;stroke:none"
         id="path958" />
      <path
         d="m 559.477,808.289 h 3.613 v 33.602 h -3.613 z"
         style="fill:#9fc91f;fill-opacity:1;fill-rule:nonzero;stroke:none"
         id="path960" />
      <path
         d="m 509.254,804.832 h 3.617 v 37.059 h -3.617 z"
         style="fill:#9fc91f;fill-opacity:1;fill-rule:nonzero;stroke:none"
         id="path962" />
      <path
         d="m 459.035,801.68 h 3.617 v 40.211 h -3.617 z"
         style="fill:#9fc91f;fill-opacity:1;fill-rule:nonzero;stroke:none"
         id="path964" />
      <path
         d="m 546.922,817.723 h 3.613 v 24.168 h -3.613 z"
         style="fill:#4d97d8;fill-opacity:1;fill-rule:nonzero;stroke:none"
         id="path966" />
      <path
         d="m 496.699,787.359 h 3.617 v 54.531 h -3.617 z"
         style="fill:#4d97d8;fill-opacity:1;fill-rule:nonzero;stroke:none"
         id="path968" />
      <path
         d="m 446.48,775.875 h 3.617 v 66.016 h -3.617 z"
         style="fill:#4d97d8;fill-opacity:1;fill-rule:nonzero;stroke:none"
         id="path970" />
      <path
         d="m 534.363,793.762 h 3.617 v 48.129 h -3.617 z"
         style="fill:#c3116d;fill-opacity:1;fill-rule:nonzero;stroke:none"
         id="path972" />
      <path
         d="m 484.145,819.473 h 3.617 v 22.418 h -3.617 z"
         style="fill:#c3116d;fill-opacity:1;fill-rule:nonzero;stroke:none"
         id="path974" />
      <path
         d="m 433.926,769.66 h 3.613 v 72.23 h -3.613 z"
         style="fill:#c3116d;fill-opacity:1;fill-rule:nonzero;stroke:none"
         id="path976" />
      <path
         d="m 584.586,785.578 h 3.613 v 56.312 h -3.613 z"
         style="fill:#c3116d;fill-opacity:1;fill-rule:nonzero;stroke:none"
         id="path978" />
      <path
         d="m 521.809,823.969 h 3.617 v 17.922 h -3.617 z"
         style="fill:#3b55ae;fill-opacity:1;fill-rule:nonzero;stroke:none"
         id="path980" />
      <path
         d="m 471.59,769.785 h 3.617 v 72.105 h -3.617 z"
         style="fill:#3b55ae;fill-opacity:1;fill-rule:nonzero;stroke:none"
         id="path982" />
      <path
         d="m 421.371,772.117 h 3.613 v 69.773 h -3.613 z"
         style="fill:#3b55ae;fill-opacity:1;fill-rule:nonzero;stroke:none"
         id="path984" />
      <path
         d="m 572.031,772.117 h 3.613 v 69.773 h -3.613 z"
         style="fill:#3b55ae;fill-opacity:1;fill-rule:nonzero;stroke:none"
         id="path986" />
    </g>
    <g
       id="g1135"
       transform="matrix(1,0,0,-1,-3.7500001e-8,831.39099)"
       style="display:none">
      <path
         d="M 0,0 H 595.5 V 841.891 H 0 Z"
         style="display:none;fill:#ffffff;fill-opacity:1;fill-rule:evenodd;stroke:none"
         id="path1039" />
      <path
         d="m 82.402,808.289 h 3.617 v 33.602 h -3.617 z"
         style="fill:#9fc91f;fill-opacity:1;fill-rule:nonzero;stroke:none"
         id="path1041" />
      <path
         d="m 32.184,804.832 h 3.617 v 37.059 h -3.617 z"
         style="fill:#9fc91f;fill-opacity:1;fill-rule:nonzero;stroke:none"
         id="path1043" />
      <path
         d="m 132.625,801.68 h 3.613 v 40.211 h -3.613 z"
         style="fill:#9fc91f;fill-opacity:1;fill-rule:nonzero;stroke:none"
         id="path1045" />
      <path
         d="m 69.848,817.723 h 3.617 v 24.168 h -3.617 z"
         style="fill:#4d97d8;fill-opacity:1;fill-rule:nonzero;stroke:none"
         id="path1047" />
      <path
         d="m 19.629,787.359 h 3.617 v 54.531 h -3.617 z"
         style="fill:#4d97d8;fill-opacity:1;fill-rule:nonzero;stroke:none"
         id="path1049" />
      <path
         d="m 170.289,788.027 h 3.617 v 53.863 h -3.617 z"
         style="fill:#4d97d8;fill-opacity:1;fill-rule:nonzero;stroke:none"
         id="path1051" />
      <path
         d="m 120.07,761.438 h 3.613 v 80.453 h -3.613 z"
         style="fill:#4d97d8;fill-opacity:1;fill-rule:nonzero;stroke:none"
         id="path1053" />
      <path
         d="m 57.293,793.762 h 3.617 v 48.129 h -3.617 z"
         style="fill:#c3116d;fill-opacity:1;fill-rule:nonzero;stroke:none"
         id="path1055" />
      <path
         d="m 7.074,819.473 h 3.617 v 22.418 H 7.074 Z"
         style="fill:#c3116d;fill-opacity:1;fill-rule:nonzero;stroke:none"
         id="path1057" />
      <path
         d="m 157.734,819.473 h 3.617 v 22.418 h -3.617 z"
         style="fill:#c3116d;fill-opacity:1;fill-rule:nonzero;stroke:none"
         id="path1059" />
      <path
         d="m 107.516,785.578 h 3.613 v 56.312 h -3.613 z"
         style="fill:#c3116d;fill-opacity:1;fill-rule:nonzero;stroke:none"
         id="path1061" />
      <path
         d="m 44.738,823.969 h 3.617 v 17.922 h -3.617 z"
         style="fill:#3b55ae;fill-opacity:1;fill-rule:nonzero;stroke:none"
         id="path1063" />
      <path
         d="m 145.18,775.875 h 3.617 v 66.016 h -3.617 z"
         style="fill:#3b55ae;fill-opacity:1;fill-rule:nonzero;stroke:none"
         id="path1065" />
      <path
         d="m 94.961,772.117 h 3.613 v 69.773 h -3.613 z"
         style="fill:#3b55ae;fill-opacity:1;fill-rule:nonzero;stroke:none"
         id="path1067" />
      <path
         d="m 320.91,808.289 h 3.617 v 33.602 h -3.617 z"
         style="fill:#9fc91f;fill-opacity:1;fill-rule:nonzero;stroke:none"
         id="path1069" />
      <path
         d="m 270.691,804.832 h 3.617 v 37.059 h -3.617 z"
         style="fill:#9fc91f;fill-opacity:1;fill-rule:nonzero;stroke:none"
         id="path1071" />
      <path
         d="m 220.473,801.68 h 3.613 v 40.211 h -3.613 z"
         style="fill:#9fc91f;fill-opacity:1;fill-rule:nonzero;stroke:none"
         id="path1073" />
      <path
         d="m 371.133,801.68 h 3.613 v 40.211 h -3.613 z"
         style="fill:#9fc91f;fill-opacity:1;fill-rule:nonzero;stroke:none"
         id="path1075" />
      <path
         d="m 308.355,817.723 h 3.617 v 24.168 h -3.617 z"
         style="fill:#4d97d8;fill-opacity:1;fill-rule:nonzero;stroke:none"
         id="path1077" />
      <path
         d="m 258.137,787.359 h 3.617 v 54.531 h -3.617 z"
         style="fill:#4d97d8;fill-opacity:1;fill-rule:nonzero;stroke:none"
         id="path1079" />
      <path
         d="m 207.914,775.875 h 3.617 v 66.016 h -3.617 z"
         style="fill:#4d97d8;fill-opacity:1;fill-rule:nonzero;stroke:none"
         id="path1081" />
      <path
         d="m 408.797,788.027 h 3.613 v 53.863 h -3.613 z"
         style="fill:#4d97d8;fill-opacity:1;fill-rule:nonzero;stroke:none"
         id="path1083" />
      <path
         d="m 358.574,761.438 h 3.617 v 80.453 h -3.617 z"
         style="fill:#4d97d8;fill-opacity:1;fill-rule:nonzero;stroke:none"
         id="path1085" />
      <path
         d="m 295.801,793.762 h 3.617 v 48.129 h -3.617 z"
         style="fill:#c3116d;fill-opacity:1;fill-rule:nonzero;stroke:none"
         id="path1087" />
      <path
         d="m 245.582,819.473 h 3.613 v 22.418 h -3.613 z"
         style="fill:#c3116d;fill-opacity:1;fill-rule:nonzero;stroke:none"
         id="path1089" />
      <path
         d="m 195.359,769.66 h 3.617 v 72.23 h -3.617 z"
         style="fill:#c3116d;fill-opacity:1;fill-rule:nonzero;stroke:none"
         id="path1091" />
      <path
         d="m 396.242,819.473 h 3.613 v 22.418 h -3.613 z"
         style="fill:#c3116d;fill-opacity:1;fill-rule:nonzero;stroke:none"
         id="path1093" />
      <path
         d="m 346.02,785.578 h 3.617 v 56.312 h -3.617 z"
         style="fill:#c3116d;fill-opacity:1;fill-rule:nonzero;stroke:none"
         id="path1095" />
      <path
         d="m 283.246,823.969 h 3.617 v 17.922 h -3.617 z"
         style="fill:#3b55ae;fill-opacity:1;fill-rule:nonzero;stroke:none"
         id="path1097" />
      <path
         d="m 233.027,769.785 h 3.613 v 72.105 h -3.613 z"
         style="fill:#3b55ae;fill-opacity:1;fill-rule:nonzero;stroke:none"
         id="path1099" />
      <path
         d="m 182.805,772.117 h 3.617 v 69.773 h -3.617 z"
         style="fill:#3b55ae;fill-opacity:1;fill-rule:nonzero;stroke:none"
         id="path1101" />
      <path
         d="m 383.688,775.875 h 3.613 v 66.016 h -3.613 z"
         style="fill:#3b55ae;fill-opacity:1;fill-rule:nonzero;stroke:none"
         id="path1103" />
      <path
         d="m 333.465,772.117 h 3.617 v 69.773 h -3.617 z"
         style="fill:#3b55ae;fill-opacity:1;fill-rule:nonzero;stroke:none"
         id="path1105" />
      <path
         d="m 559.477,808.289 h 3.613 v 33.602 h -3.613 z"
         style="fill:#9fc91f;fill-opacity:1;fill-rule:nonzero;stroke:none"
         id="path1107" />
      <path
         d="m 509.254,804.832 h 3.617 v 37.059 h -3.617 z"
         style="fill:#9fc91f;fill-opacity:1;fill-rule:nonzero;stroke:none"
         id="path1109" />
      <path
         d="m 459.035,801.68 h 3.617 v 40.211 h -3.617 z"
         style="fill:#9fc91f;fill-opacity:1;fill-rule:nonzero;stroke:none"
         id="path1111" />
      <path
         d="m 546.922,817.723 h 3.613 v 24.168 h -3.613 z"
         style="fill:#4d97d8;fill-opacity:1;fill-rule:nonzero;stroke:none"
         id="path1113" />
      <path
         d="m 496.699,787.359 h 3.617 v 54.531 h -3.617 z"
         style="fill:#4d97d8;fill-opacity:1;fill-rule:nonzero;stroke:none"
         id="path1115" />
      <path
         d="m 446.48,775.875 h 3.617 v 66.016 h -3.617 z"
         style="fill:#4d97d8;fill-opacity:1;fill-rule:nonzero;stroke:none"
         id="path1117" />
      <path
         d="m 534.363,793.762 h 3.617 v 48.129 h -3.617 z"
         style="fill:#c3116d;fill-opacity:1;fill-rule:nonzero;stroke:none"
         id="path1119" />
      <path
         d="m 484.145,819.473 h 3.617 v 22.418 h -3.617 z"
         style="fill:#c3116d;fill-opacity:1;fill-rule:nonzero;stroke:none"
         id="path1121" />
      <path
         d="m 433.926,769.66 h 3.613 v 72.23 h -3.613 z"
         style="fill:#c3116d;fill-opacity:1;fill-rule:nonzero;stroke:none"
         id="path1123" />
      <path
         d="m 584.586,785.578 h 3.613 v 56.312 h -3.613 z"
         style="fill:#c3116d;fill-opacity:1;fill-rule:nonzero;stroke:none"
         id="path1125" />
      <path
         d="m 521.809,823.969 h 3.617 v 17.922 h -3.617 z"
         style="fill:#3b55ae;fill-opacity:1;fill-rule:nonzero;stroke:none"
         id="path1127" />
      <path
         d="m 471.59,769.785 h 3.617 v 72.105 h -3.617 z"
         style="fill:#3b55ae;fill-opacity:1;fill-rule:nonzero;stroke:none"
         id="path1129" />
      <path
         d="m 421.371,772.117 h 3.613 v 69.773 h -3.613 z"
         style="fill:#3b55ae;fill-opacity:1;fill-rule:nonzero;stroke:none"
         id="path1131" />
      <path
         d="m 572.031,772.117 h 3.613 v 69.773 h -3.613 z"
         style="fill:#3b55ae;fill-opacity:1;fill-rule:nonzero;stroke:none"
         id="path1133" />
    </g>
  </g>
</svg>
